<svg width="28" height="28" viewBox="0 0 28 28" fill="none" xmlns="http://www.w3.org/2000/svg">
<path d="M12.25 7C10.5194 7 8.82769 7.51318 7.38876 8.47464C5.94983 9.4361 4.82832 10.8027 4.16606 12.4015C3.50379 14.0004 3.33051 15.7597 3.66813 17.457C4.00575 19.1544 4.83911 20.7135 6.06282 21.9372C7.28653 23.1609 8.84563 23.9943 10.543 24.3319C12.2403 24.6695 13.9996 24.4962 15.5985 23.8339C17.1973 23.1717 18.5639 22.0502 19.5254 20.6112C20.4868 19.1723 21 17.4806 21 15.75H12.25V7Z" stroke="#006400" stroke-width="1.5" stroke-linecap="round" stroke-linejoin="round"/>
<path d="M15.75 12.25H24.5C24.5 9.92936 23.5781 7.70376 21.9372 6.06282C20.2962 4.42187 18.0706 3.5 15.75 3.5V12.25Z" stroke="#006400" stroke-width="1.5" stroke-linecap="round" stroke-linejoin="round"/>
</svg>
