<svg width="28" height="28" viewBox="0 0 28 28" fill="none" xmlns="http://www.w3.org/2000/svg">
<path d="M14.0004 1.75C10.8636 1.7504 7.84641 2.95412 5.57075 5.11309C3.2951 7.27206 1.93436 10.2217 1.769 13.3542C1.60364 16.4867 2.64625 19.5633 4.68194 21.9498C6.71764 24.3364 9.5913 25.8511 12.7107 26.1818C12.7719 25.6463 12.904 25.0635 13.1062 24.4563L13.0712 24.4536C10.7774 24.2511 8.6152 23.2952 6.92166 21.735C6.78166 20.7463 6.56291 18.9613 7.26291 18.025C7.42262 17.776 7.64283 17.5716 7.90295 17.4309C8.16308 17.2901 8.45465 17.2175 8.75041 17.22C9.09805 17.1989 9.43633 17.099 9.73955 16.9276C10.0428 16.7563 10.303 16.5182 10.5004 16.2312C10.7236 15.8163 10.8519 15.3569 10.8761 14.8864C10.9003 14.4158 10.8198 13.9457 10.6404 13.51C10.4129 12.635 10.2904 12.0488 10.7279 11.4625C11.0615 11.2551 11.4243 11.0988 11.8042 10.9987L11.8348 10.9882C12.9425 10.6137 14.4327 10.1089 14.8142 8.51375C15.2928 6.52137 14.5018 5.08113 13.772 3.75113L13.7204 3.6575L13.6767 3.5H14.0004C15.9805 3.5 17.9204 4.06525 19.5917 5.1275C18.6718 6.55198 17.5653 7.84683 16.3017 8.9775C15.0942 10.0713 15.9779 11.3312 16.5642 12.1625C17.1399 12.7795 17.4733 13.5837 17.503 14.427C18.0589 14.1885 18.6353 14.0011 19.225 13.867C19.0739 12.873 18.6495 11.9406 17.9992 11.1738C17.7802 10.9108 17.6031 10.6157 17.4742 10.2988C18.8162 9.09727 19.9931 7.72322 20.9742 6.2125C22.0399 7.16047 22.9004 8.31647 23.5028 9.60937C24.1051 10.9023 24.4366 12.3047 24.4768 13.7305C25.098 13.818 25.693 13.9309 26.2504 14.0577V14C26.2504 10.7511 24.9598 7.63526 22.6625 5.33794C20.3652 3.04062 17.2493 1.75 14.0004 1.75ZM11.8042 3.73625C11.9442 4.0075 12.0842 4.26125 12.2329 4.52375L12.2565 4.5675C12.9128 5.73825 13.4798 6.75413 13.1079 8.11125C12.9592 8.70625 12.2329 8.98625 11.2354 9.33625C10.5195 9.5043 9.86849 9.87847 9.36291 10.4125C9.02028 10.9213 8.80693 11.506 8.74137 12.1159C8.6758 12.7258 8.76 13.3425 8.98666 13.9125C9.15291 14.56 9.24916 14.9625 9.07416 15.225C8.94991 15.4122 8.93591 15.4122 8.77054 15.4192C8.70404 15.4219 8.61304 15.4262 8.47916 15.4437C7.95748 15.4765 7.45007 15.6274 6.9953 15.8851C6.54053 16.1428 6.15031 16.5005 5.85416 16.9313C5.35017 17.6644 5.06769 18.527 5.04041 19.4163C4.03729 17.7875 3.5043 15.9129 3.50041 14C3.50133 11.5974 4.32621 9.2677 5.8374 7.39981C7.34859 5.53192 9.45467 4.2388 11.8042 3.73625ZM16.0803 23.8919C16.7567 24.5998 17.9878 25.375 20.1254 25.375C23.8827 25.375 25.0587 20.5363 25.5933 18.3383C25.6808 17.976 25.7508 17.6855 25.8129 17.5C25.9459 17.1028 26.288 16.8087 26.6722 16.5865C27.2759 16.24 27.2899 15.6765 26.6162 15.4998C23.4408 14.6676 18.7149 14.203 15.7504 17.1666C14.5219 18.3951 14.5412 20.0051 14.794 21.1802C14.8448 21.1091 14.8967 21.0376 14.9498 20.9659C16.327 19.1021 18.3439 17.3696 21.0048 16.4439C21.1676 16.3924 21.3441 16.4065 21.4967 16.483C21.6493 16.5596 21.7661 16.6926 21.8223 16.8539C21.8784 17.0151 21.8695 17.1919 21.7974 17.3467C21.7253 17.5015 21.5957 17.6221 21.4362 17.6829C19.0649 18.508 17.2537 20.0568 16.005 21.7464C14.759 23.4334 14.1063 25.2175 14.0004 26.4906C14.0066 26.6578 14.0765 26.8163 14.1957 26.9337C14.3149 27.0511 14.4745 27.1186 14.6417 27.1223C14.809 27.126 14.9714 27.0656 15.0957 26.9536C15.2199 26.8415 15.2967 26.6863 15.3103 26.5195C15.3715 25.7259 15.6253 24.8124 16.0803 23.8919Z" fill="#006400"/>
</svg>
