<svg width="409" height="122" viewBox="0 0 409 122" fill="none" xmlns="http://www.w3.org/2000/svg">
<path d="M153.705 76.6729C150.431 76.6729 147.425 76.0897 144.688 74.9233C141.952 73.7569 139.574 72.0971 137.555 69.9437C135.537 67.7455 133.967 65.166 132.845 62.2052C131.768 59.2443 131.23 55.9919 131.23 52.4479C131.23 49.0833 131.813 45.9654 132.98 43.0943C134.191 40.1783 135.851 37.6212 137.959 35.423C140.068 33.2248 142.513 31.5201 145.294 30.3088C148.075 29.0976 151.081 28.492 154.311 28.492C156.599 28.492 158.82 28.8508 160.973 29.5686C163.171 30.2415 165.145 31.2061 166.895 32.4622C168.689 33.6734 170.147 35.0641 171.269 36.6343L166.424 41.6812C165.123 40.3802 163.799 39.3035 162.453 38.4512C161.152 37.5539 159.807 36.881 158.416 36.4324C157.07 35.9838 155.702 35.7595 154.311 35.7595C152.113 35.7595 150.049 36.1857 148.12 37.038C146.236 37.8455 144.576 38.9895 143.141 40.4699C141.75 41.9503 140.651 43.7223 139.843 45.786C139.036 47.8047 138.632 50.0253 138.632 52.4479C138.632 55.0049 139.013 57.3377 139.776 59.4462C140.584 61.5098 141.705 63.2818 143.141 64.7623C144.576 66.2427 146.281 67.3866 148.255 68.1941C150.274 68.9568 152.494 69.3381 154.917 69.3381C156.397 69.3381 157.855 69.1362 159.291 68.7325C160.726 68.3287 162.072 67.7455 163.328 66.9829C164.584 66.2203 165.728 65.323 166.76 64.2912L170.394 70.2129C169.362 71.4242 167.949 72.5233 166.154 73.5102C164.405 74.4971 162.431 75.2822 160.233 75.8654C158.079 76.4038 155.904 76.6729 153.705 76.6729ZM179.661 76L179.661 40.6718H186.592L186.592 76H179.661ZM183.025 32.8659C181.545 32.8659 180.401 32.4846 179.593 31.722C178.786 30.9593 178.382 29.8827 178.382 28.492C178.382 27.191 178.786 26.1367 179.593 25.3292C180.446 24.5217 181.59 24.118 183.025 24.118C184.506 24.118 185.65 24.4993 186.457 25.262C187.265 26.0246 187.668 27.1013 187.668 28.492C187.668 29.7929 187.242 30.8472 186.39 31.6547C185.582 32.4622 184.461 32.8659 183.025 32.8659ZM197.245 76V40.6718L204.244 40.6718V51.7749L203.571 49.0833C204.064 47.3785 204.894 45.8308 206.061 44.4401C207.272 43.0494 208.64 41.9503 210.165 41.1428C211.736 40.3353 213.351 39.9316 215.01 39.9316C215.773 39.9316 216.491 39.9989 217.164 40.1334C217.882 40.268 218.442 40.425 218.846 40.6045L217.029 48.1412C216.491 47.9169 215.885 47.7374 215.212 47.6028C214.584 47.4234 213.956 47.3337 213.328 47.3337C212.117 47.3337 210.951 47.5804 209.829 48.0739C208.752 48.5225 207.788 49.173 206.935 50.0253C206.128 50.8329 205.477 51.7974 204.984 52.9189C204.49 53.9956 204.244 55.1844 204.244 56.4854V76H197.245ZM237.88 76.6729C234.605 76.6729 231.667 75.8654 229.065 74.2504C226.508 72.6354 224.467 70.4372 222.941 67.6558C221.461 64.8744 220.721 61.7566 220.721 58.3022C220.721 54.8479 221.461 51.7301 222.941 48.9487C224.467 46.1673 226.508 43.9691 229.065 42.3541C231.667 40.7391 234.605 39.9316 237.88 39.9316C241.021 39.9316 243.869 40.5821 246.426 41.883C249.028 43.1391 251.002 44.8663 252.348 47.0645L248.512 51.7749C247.795 50.7431 246.875 49.801 245.753 48.9487C244.632 48.0963 243.443 47.4234 242.187 46.9299C240.931 46.4365 239.72 46.1897 238.553 46.1897C236.4 46.1897 234.471 46.728 232.766 47.8047C231.106 48.8365 229.783 50.2721 228.796 52.1114C227.809 53.9507 227.315 56.0143 227.315 58.3022C227.315 60.5902 227.831 62.6538 228.863 64.4931C229.895 66.2875 231.263 67.7231 232.968 68.7998C234.673 69.8764 236.557 70.4148 238.62 70.4148C239.832 70.4148 240.998 70.2129 242.12 69.8092C243.286 69.4054 244.408 68.7998 245.484 67.9923C246.561 67.1848 247.57 66.1978 248.512 65.0314L252.348 69.7419C250.912 71.7606 248.849 73.4205 246.157 74.7215C243.51 76.0224 240.751 76.6729 237.88 76.6729ZM259.02 76V26.204L265.951 26.204V76H259.02ZM291.604 76.6729C287.97 76.6729 284.74 75.9103 281.914 74.385C279.132 72.8149 276.934 70.6839 275.319 67.9923C273.749 65.3006 272.964 62.2052 272.964 58.706C272.964 55.9246 273.413 53.3899 274.31 51.102C275.207 48.8141 276.441 46.8402 278.011 45.1803C279.626 43.4756 281.532 42.1746 283.731 41.2774C285.974 40.3353 288.396 39.8643 290.998 39.8643C293.286 39.8643 295.417 40.3129 297.391 41.2101C299.365 42.0625 301.07 43.2513 302.505 44.7766C303.986 46.3019 305.107 48.1187 305.87 50.2272C306.677 52.2908 307.059 54.5563 307.014 57.0237L306.946 59.9845L278.078 59.9845L276.53 54.4666L300.957 54.4666L299.948 55.6106V53.9956C299.813 52.5151 299.32 51.1917 298.468 50.0253C297.615 48.859 296.539 47.9393 295.238 47.2664C293.937 46.5935 292.523 46.257 290.998 46.257C288.576 46.257 286.534 46.728 284.875 47.6701C283.215 48.5674 281.959 49.9132 281.106 51.7076C280.254 53.4572 279.828 55.633 279.828 58.235C279.828 60.7023 280.344 62.8557 281.375 64.695C282.407 66.4894 283.865 67.8801 285.749 68.8671C287.634 69.854 289.809 70.3475 292.277 70.3475C294.026 70.3475 295.641 70.0559 297.122 69.4727C298.647 68.8895 300.284 67.8353 302.034 66.31L305.533 71.2223C304.457 72.2989 303.133 73.241 301.563 74.0485C300.038 74.856 298.4 75.5065 296.651 76C294.946 76.4486 293.264 76.6729 291.604 76.6729ZM316.296 76V28.8957H323.563V76H316.296ZM319.526 55.947V48.9487H343.818V55.947H319.526ZM319.526 35.8941V28.8957L346.846 28.8957V35.8941L319.526 35.8941ZM356.17 76V40.6718H363.101V76H356.17ZM359.535 32.8659C358.055 32.8659 356.911 32.4846 356.103 31.722C355.296 30.9593 354.892 29.8827 354.892 28.492C354.892 27.191 355.296 26.1367 356.103 25.3292C356.955 24.5217 358.099 24.118 359.535 24.118C361.015 24.118 362.159 24.4993 362.967 25.262C363.774 26.0246 364.178 27.1013 364.178 28.492C364.178 29.7929 363.752 30.8472 362.9 31.6547C362.092 32.4622 360.97 32.8659 359.535 32.8659ZM373.755 76V40.6718L380.686 40.6718V47.9393L379.475 48.7468C379.923 47.1767 380.798 45.7411 382.099 44.4401C383.4 43.0943 384.948 42.0176 386.742 41.2101C388.537 40.3578 390.376 39.9316 392.26 39.9316C394.952 39.9316 397.195 40.4699 398.99 41.5466C400.784 42.5784 402.13 44.171 403.027 46.3243C403.924 48.4776 404.373 51.1917 404.373 54.4666V76H397.442V54.9377C397.442 52.9189 397.173 51.259 396.634 49.9581C396.096 48.6122 395.266 47.6477 394.144 47.0645C393.023 46.4365 391.632 46.1673 389.972 46.257C388.627 46.257 387.393 46.4813 386.271 46.9299C385.15 47.3337 384.163 47.9169 383.311 48.6795C382.503 49.4422 381.853 50.3394 381.359 51.3712C380.91 52.3581 380.686 53.4348 380.686 54.6012V76H377.254C376.671 76 376.088 76 375.505 76C374.921 76 374.338 76 373.755 76Z" fill="#292A2C"/>
<path d="M140.861 101.153C140.114 101.153 139.429 101.02 138.805 100.755C138.181 100.489 137.639 100.11 137.179 99.6191C136.718 99.1179 136.36 98.5298 136.105 97.8547C135.859 97.1796 135.736 96.438 135.736 95.63C135.736 94.8628 135.869 94.1519 136.135 93.4973C136.412 92.8324 136.79 92.2494 137.271 91.7482C137.752 91.247 138.309 90.8583 138.943 90.5821C139.577 90.306 140.263 90.1679 140.999 90.1679C141.521 90.1679 142.027 90.2497 142.518 90.4134C143.019 90.5668 143.469 90.7867 143.868 91.0731C144.277 91.3493 144.61 91.6664 144.866 92.0244L143.761 93.1751C143.464 92.8785 143.162 92.633 142.856 92.4386C142.559 92.2341 142.252 92.0806 141.935 91.9783C141.628 91.8761 141.316 91.8249 140.999 91.8249C140.498 91.8249 140.027 91.9221 139.588 92.1164C139.158 92.3005 138.779 92.5614 138.452 92.8989C138.135 93.2365 137.884 93.6405 137.7 94.111C137.516 94.5713 137.424 95.0776 137.424 95.63C137.424 96.213 137.511 96.7449 137.685 97.2256C137.869 97.6962 138.125 98.1002 138.452 98.4377C138.779 98.7753 139.168 99.0361 139.618 99.2202C140.079 99.3941 140.585 99.481 141.137 99.481C141.475 99.481 141.807 99.435 142.134 99.343C142.462 99.2509 142.769 99.1179 143.055 98.944C143.341 98.7702 143.602 98.5656 143.838 98.3303L144.666 99.6805C144.431 99.9567 144.109 100.207 143.699 100.432C143.301 100.657 142.85 100.836 142.349 100.969C141.858 101.092 141.362 101.153 140.861 101.153ZM151.09 101.092C150.262 101.092 149.52 100.913 148.866 100.555C148.211 100.187 147.694 99.6856 147.316 99.0514C146.948 98.407 146.764 97.6808 146.764 96.8727V90.2446H148.421V96.7347C148.421 97.2563 148.543 97.7268 148.789 98.1462C149.034 98.5554 149.357 98.8827 149.755 99.1282C150.165 99.3736 150.61 99.4964 151.09 99.4964C151.602 99.4964 152.062 99.3736 152.471 99.1282C152.891 98.8827 153.223 98.5554 153.468 98.1462C153.714 97.7268 153.837 97.2563 153.837 96.7347V90.2446H155.417V96.8727C155.417 97.6808 155.228 98.407 154.849 99.0514C154.481 99.6856 153.97 100.187 153.315 100.555C152.66 100.913 151.919 101.092 151.09 101.092ZM158.274 101V90.2599H159.931V99.4043H164.964V101H158.274ZM168.211 101V91.8556L165.204 91.8556V90.2599L172.968 90.2599V91.8556H169.868V101H168.211ZM174.612 101V99.4657H176.346V91.7942H174.612V90.2599H179.736V91.7942H178.003V99.4657H179.736V101H174.612ZM185.498 101L181.202 90.2599H183.089L185.652 96.7807C185.774 97.0978 185.882 97.3842 185.974 97.6399C186.076 97.8956 186.163 98.1309 186.235 98.3457C186.306 98.5502 186.373 98.7446 186.434 98.9287C186.496 99.1128 186.557 99.2969 186.618 99.481L186.219 99.4964C186.291 99.2509 186.368 98.9952 186.45 98.7292C186.531 98.4633 186.623 98.1718 186.726 97.8547C186.838 97.5376 186.971 97.1796 187.125 96.7807L189.503 90.2599H191.436L187.109 101H185.498ZM191.032 101L195.19 90.2599H196.877L201.005 101H199.24L196.785 94.5253C196.755 94.4537 196.693 94.2798 196.601 94.0036C196.519 93.7274 196.422 93.4206 196.31 93.083C196.197 92.7455 196.095 92.4386 196.003 92.1625C195.911 91.8761 195.849 91.6919 195.819 91.6101L196.172 91.5948C196.11 91.7687 196.034 91.9886 195.941 92.2545C195.86 92.5205 195.768 92.8018 195.665 93.0984C195.573 93.395 195.481 93.6763 195.389 93.9422C195.297 94.198 195.22 94.4128 195.159 94.5866L192.719 101H191.032ZM192.873 98.3303L193.487 96.7347H198.366L199.071 98.3303H192.873ZM204.171 101V91.8556H201.164V90.2599H208.928V91.8556H205.828V101H204.171ZM210.572 101V99.4657H212.306V91.7942H210.572V90.2599H215.696V91.7942H213.963V99.4657H215.696V101L210.572 101ZM218.298 101V90.2599H219.786L226.353 99.0514L226.107 99.1895C226.066 98.9338 226.031 98.6576 226 98.361C225.969 98.0542 225.938 97.732 225.908 97.3944C225.887 97.0466 225.867 96.6835 225.846 96.3051C225.836 95.9164 225.826 95.5123 225.816 95.093C225.806 94.6736 225.8 94.2389 225.8 93.7888V90.2599H227.457V101H225.938L219.479 92.5307L219.648 92.3159C219.699 92.9398 219.74 93.4717 219.771 93.9116C219.812 94.3412 219.842 94.7094 219.863 95.0163C219.893 95.3129 219.914 95.5584 219.924 95.7527C219.934 95.9368 219.939 96.0903 219.939 96.213C219.95 96.3357 219.955 96.4431 219.955 96.5352V101H218.298ZM235.267 101.153C234.489 101.153 233.763 101.015 233.088 100.739C232.413 100.453 231.819 100.059 231.308 99.5578C230.797 99.0566 230.398 98.4735 230.111 97.8087C229.835 97.1336 229.697 96.4073 229.697 95.63C229.697 94.8628 229.835 94.1468 230.111 93.482C230.398 92.8171 230.791 92.2392 231.293 91.7482C231.804 91.247 232.397 90.8583 233.072 90.5821C233.748 90.306 234.474 90.1679 235.251 90.1679C235.793 90.1679 236.32 90.2446 236.831 90.398C237.353 90.5515 237.824 90.7663 238.243 91.0424C238.662 91.3186 239.005 91.6357 239.271 91.9937L238.197 93.1137C237.89 92.8171 237.573 92.5716 237.246 92.3773C236.929 92.1829 236.601 92.0346 236.264 91.9323C235.926 91.83 235.589 91.7789 235.251 91.7789C234.699 91.7789 234.187 91.8761 233.717 92.0704C233.257 92.2647 232.847 92.5358 232.489 92.8836C232.142 93.2314 231.871 93.6405 231.676 94.111C231.482 94.5713 231.385 95.0776 231.385 95.63C231.385 96.1619 231.487 96.6682 231.692 97.1489C231.896 97.6194 232.177 98.0337 232.535 98.3917C232.904 98.7497 233.323 99.031 233.794 99.2356C234.274 99.4401 234.781 99.5424 235.313 99.5424C235.711 99.5424 236.09 99.4862 236.448 99.3736C236.806 99.2509 237.123 99.0821 237.399 98.8673C237.675 98.6525 237.89 98.407 238.044 98.1309C238.197 97.8445 238.274 97.5427 238.274 97.2256V96.9188L238.504 97.1336H235.22V95.4919H239.977C239.997 95.6044 240.013 95.7169 240.023 95.8294C240.033 95.9317 240.038 96.034 240.038 96.1363C240.048 96.2283 240.054 96.3204 240.054 96.4125C240.054 97.1182 239.931 97.7626 239.685 98.3457C239.44 98.9185 239.097 99.4146 238.657 99.8339C238.228 100.253 237.721 100.581 237.138 100.816C236.566 101.041 235.942 101.153 235.267 101.153ZM246.511 101V90.2599H248.168V101H246.511ZM247.248 96.4278V94.8321H252.787V96.4278H247.248ZM247.248 91.8556V90.2599H253.477V91.8556H247.248ZM255.342 101V99.4657H257.076V91.7942H255.342V90.2599H260.467V91.7942H258.733V99.4657H260.467V101H255.342ZM263.068 101V90.2599H264.556L271.123 99.0514L270.878 99.1895C270.837 98.9338 270.801 98.6576 270.77 98.361C270.739 98.0542 270.709 97.732 270.678 97.3944C270.658 97.0466 270.637 96.6835 270.617 96.3051C270.606 95.9164 270.596 95.5123 270.586 95.093C270.576 94.6736 270.571 94.2389 270.571 93.7888V90.2599H272.228V101H270.709L264.249 92.5307L264.418 92.3159C264.469 92.9398 264.51 93.4717 264.541 93.9116C264.582 94.3412 264.612 94.7094 264.633 95.0163C264.664 95.3129 264.684 95.5584 264.694 95.7527C264.705 95.9368 264.71 96.0903 264.71 96.213C264.72 96.3357 264.725 96.4431 264.725 96.5352V101H263.068ZM274.114 101L278.272 90.2599H279.96L284.087 101H282.323L279.868 94.5253C279.837 94.4537 279.776 94.2798 279.684 94.0036C279.602 93.7274 279.505 93.4206 279.392 93.083C279.28 92.7455 279.178 92.4386 279.085 92.1625C278.993 91.8761 278.932 91.6919 278.901 91.6101L279.254 91.5948C279.193 91.7687 279.116 91.9886 279.024 92.2545C278.942 92.5205 278.85 92.8018 278.748 93.0984C278.656 93.395 278.564 93.6763 278.472 93.9422C278.38 94.198 278.303 94.4128 278.242 94.5866L275.802 101H274.114ZM275.956 98.3303L276.569 96.7347H281.448L282.154 98.3303H275.956ZM285.977 101V90.2599H287.466L294.033 99.0514L293.787 99.1895C293.746 98.9338 293.71 98.6576 293.68 98.361C293.649 98.0542 293.618 97.732 293.588 97.3944C293.567 97.0466 293.547 96.6835 293.526 96.3051C293.516 95.9164 293.506 95.5123 293.496 95.093C293.485 94.6736 293.48 94.2389 293.48 93.7888V90.2599H295.137V101H293.618L287.159 92.5307L287.328 92.3159C287.379 92.9398 287.42 93.4717 287.45 93.9116C287.491 94.3412 287.522 94.7094 287.542 95.0163C287.573 95.3129 287.594 95.5584 287.604 95.7527C287.614 95.9368 287.619 96.0903 287.619 96.213C287.629 96.3357 287.635 96.4431 287.635 96.5352V101L285.977 101ZM302.501 101.153C301.755 101.153 301.069 101.02 300.445 100.755C299.821 100.489 299.279 100.11 298.819 99.6191C298.359 99.1179 298.001 98.5298 297.745 97.8547C297.5 97.1796 297.377 96.438 297.377 95.63C297.377 94.8628 297.51 94.1519 297.776 93.4973C298.052 92.8324 298.43 92.2494 298.911 91.7482C299.392 91.247 299.949 90.8583 300.583 90.5821C301.218 90.306 301.903 90.1679 302.639 90.1679C303.161 90.1679 303.667 90.2497 304.158 90.4134C304.66 90.5668 305.11 90.7867 305.509 91.0731C305.918 91.3493 306.25 91.6664 306.506 92.0244L305.401 93.1751C305.105 92.8785 304.803 92.633 304.496 92.4386C304.199 92.2341 303.892 92.0806 303.575 91.9783C303.268 91.8761 302.957 91.8249 302.639 91.8249C302.138 91.8249 301.668 91.9221 301.228 92.1164C300.798 92.3005 300.42 92.5614 300.092 92.8989C299.775 93.2365 299.525 93.6405 299.341 94.111C299.157 94.5713 299.065 95.0776 299.065 95.63C299.065 96.213 299.151 96.7449 299.325 97.2256C299.509 97.6962 299.765 98.1002 300.092 98.4377C300.42 98.7753 300.809 99.0361 301.259 99.2202C301.719 99.3941 302.225 99.481 302.778 99.481C303.115 99.481 303.447 99.435 303.775 99.343C304.102 99.2509 304.409 99.1179 304.695 98.944C304.982 98.7702 305.243 98.5656 305.478 98.3303L306.306 99.6805C306.071 99.9567 305.749 100.207 305.34 100.432C304.941 100.657 304.491 100.836 303.99 100.969C303.499 101.092 303.003 101.153 302.501 101.153ZM308.158 101V99.4657H309.892V91.7942H308.158V90.2599H313.283V91.7942H311.549V99.4657H313.283V101H308.158ZM314.764 101L318.922 90.2599H320.61L324.737 101H322.973L320.518 94.5253C320.487 94.4537 320.426 94.2798 320.334 94.0036C320.252 93.7274 320.155 93.4206 320.042 93.083C319.93 92.7455 319.827 92.4386 319.735 92.1625C319.643 91.8761 319.582 91.6919 319.551 91.6101L319.904 91.5948C319.843 91.7687 319.766 91.9886 319.674 92.2545C319.592 92.5205 319.5 92.8018 319.398 93.0984C319.306 93.395 319.214 93.6763 319.122 93.9422C319.03 94.198 318.953 94.4128 318.891 94.5866L316.452 101H314.764ZM316.605 98.3303L317.219 96.7347H322.098L322.804 98.3303H316.605ZM326.627 101V90.2599H328.284V99.4043H333.317V101L326.627 101ZM344.915 101.153C344.137 101.153 343.411 101.015 342.736 100.739C342.061 100.453 341.468 100.059 340.956 99.5578C340.445 99.0566 340.046 98.4735 339.759 97.8087C339.483 97.1336 339.345 96.4073 339.345 95.63C339.345 94.8628 339.483 94.1468 339.759 93.482C340.046 92.8171 340.44 92.2392 340.941 91.7482C341.452 91.247 342.046 90.8583 342.721 90.5821C343.396 90.306 344.122 90.1679 344.899 90.1679C345.441 90.1679 345.968 90.2446 346.48 90.398C347.001 90.5515 347.472 90.7663 347.891 91.0424C348.311 91.3186 348.653 91.6357 348.919 91.9937L347.845 93.1137C347.538 92.8171 347.221 92.5716 346.894 92.3773C346.577 92.1829 346.249 92.0346 345.912 91.9323C345.574 91.83 345.237 91.7789 344.899 91.7789C344.347 91.7789 343.836 91.8761 343.365 92.0704C342.905 92.2647 342.496 92.5358 342.138 92.8836C341.79 93.2314 341.519 93.6405 341.324 94.111C341.13 94.5713 341.033 95.0776 341.033 95.63C341.033 96.1619 341.135 96.6682 341.34 97.1489C341.544 97.6194 341.826 98.0337 342.184 98.3917C342.552 98.7497 342.971 99.031 343.442 99.2356C343.922 99.4401 344.429 99.5424 344.961 99.5424C345.36 99.5424 345.738 99.4862 346.096 99.3736C346.454 99.2509 346.771 99.0821 347.047 98.8673C347.323 98.6525 347.538 98.407 347.692 98.1309C347.845 97.8445 347.922 97.5427 347.922 97.2256V96.9188L348.152 97.1336H344.869V95.4919H349.625C349.645 95.6044 349.661 95.7169 349.671 95.8294C349.681 95.9317 349.686 96.034 349.686 96.1363C349.697 96.2283 349.702 96.3204 349.702 96.4125C349.702 97.1182 349.579 97.7626 349.333 98.3457C349.088 98.9185 348.745 99.4146 348.305 99.8339C347.876 100.253 347.37 100.581 346.786 100.816C346.214 101.041 345.59 101.153 344.915 101.153ZM351.859 101V90.2599H356.431C357.045 90.2599 357.608 90.4134 358.119 90.7202C358.641 91.0169 359.055 91.426 359.362 91.9477C359.669 92.4591 359.822 93.037 359.822 93.6814C359.822 94.2644 359.669 94.8066 359.362 95.3078C359.055 95.809 358.646 96.213 358.135 96.5199C357.623 96.8165 357.055 96.9648 356.431 96.9648H353.516V101H351.859ZM358.242 101L355.511 96.1516L357.214 95.7681L360.252 101.015L358.242 101ZM353.516 95.3691H356.585C356.882 95.3691 357.147 95.2975 357.383 95.1543C357.618 95.0009 357.802 94.7963 357.935 94.5406C358.068 94.2747 358.135 93.9832 358.135 93.6661C358.135 93.3081 358.048 92.9961 357.874 92.7302C357.71 92.454 357.475 92.2392 357.168 92.0857C356.871 91.9323 356.534 91.8556 356.155 91.8556H353.516V95.3691ZM366.873 101.153C366.116 101.153 365.415 101.015 364.771 100.739C364.137 100.463 363.579 100.079 363.099 99.5884C362.628 99.0872 362.26 98.5042 361.994 97.8394C361.738 97.1643 361.61 96.4278 361.61 95.63C361.61 94.8321 361.738 94.1008 361.994 93.4359C362.26 92.7608 362.628 92.1778 363.099 91.6868C363.579 91.1856 364.137 90.7969 364.771 90.5208C365.415 90.2446 366.116 90.1065 366.873 90.1065C367.63 90.1065 368.326 90.2446 368.96 90.5208C369.604 90.7969 370.162 91.1856 370.632 91.6868C371.113 92.188 371.481 92.7762 371.737 93.4513C372.003 94.1161 372.136 94.8424 372.136 95.63C372.136 96.4176 372.003 97.1489 371.737 97.824C371.481 98.4889 371.113 99.0719 370.632 99.5731C370.162 100.074 369.604 100.463 368.96 100.739C368.326 101.015 367.63 101.153 366.873 101.153ZM366.873 99.5424C367.395 99.5424 367.87 99.4452 368.3 99.2509C368.74 99.0566 369.118 98.7855 369.435 98.4377C369.752 98.0797 369.998 97.6655 370.172 97.1949C370.356 96.7142 370.448 96.1925 370.448 95.63C370.448 95.0674 370.356 94.5508 370.172 94.0803C369.998 93.5996 369.752 93.1853 369.435 92.8376C369.118 92.4795 368.74 92.2034 368.3 92.009C367.87 91.8147 367.395 91.7175 366.873 91.7175C366.351 91.7175 365.871 91.8147 365.431 92.009C365.001 92.2034 364.623 92.4744 364.295 92.8222C363.978 93.17 363.733 93.5842 363.559 94.065C363.385 94.5355 363.298 95.0572 363.298 95.63C363.298 96.1925 363.385 96.7142 363.559 97.1949C363.733 97.6757 363.978 98.09 364.295 98.4377C364.623 98.7855 365.001 99.0566 365.431 99.2509C365.871 99.4452 366.351 99.5424 366.873 99.5424ZM376.59 101L373.169 90.2599H374.933L377.005 96.9801C377.066 97.1438 377.122 97.3381 377.173 97.5632C377.225 97.778 377.271 97.9979 377.312 98.2229C377.352 98.448 377.388 98.6576 377.419 98.852C377.46 99.0463 377.496 99.2049 377.526 99.3276L377.081 99.3123C377.235 98.7702 377.352 98.3508 377.434 98.0542C377.526 97.7575 377.598 97.5325 377.649 97.3791C377.7 97.2154 377.746 97.0773 377.787 96.9648L379.72 92.1164H381.209L383.08 96.9648C383.183 97.2103 383.27 97.4558 383.341 97.7013C383.423 97.9365 383.495 98.1769 383.556 98.4224C383.617 98.6576 383.684 98.9082 383.756 99.1742L383.357 99.2816C383.408 99.0054 383.444 98.7906 383.464 98.6372C383.495 98.4735 383.52 98.3406 383.541 98.2383C383.561 98.136 383.582 98.0388 383.602 97.9468C383.623 97.8445 383.653 97.7166 383.694 97.5632C383.745 97.4098 383.812 97.2001 383.894 96.9341L385.934 90.2599H387.714L384.293 101H383.142L380.303 94.2798L380.441 94.3412L377.71 101H376.59ZM391.778 101V91.8556H388.771V90.2599H396.534V91.8556H393.435V101H391.778ZM405.589 101V90.2599H407.246V101H405.589ZM398.577 101V90.2599H400.234V101H398.577ZM399.298 96.4431V94.8475L406.325 94.8475V96.4431L399.298 96.4431Z" fill="#292A2C"/>
<mask id="mask0_208_394" style="mask-type:luminance" maskUnits="userSpaceOnUse" x="0" y="0" width="121" height="121">
<path d="M0.504883 0.575684H120.762V120.833H0.504883V0.575684Z" fill="white"/>
</mask>
<g mask="url(#mask0_208_394)">
<path d="M60.6335 0.599609C27.4857 0.599609 0.504883 27.5442 0.504883 60.7282C0.504883 93.9121 27.4495 120.821 60.6335 120.821C93.8174 120.821 120.762 93.876 120.762 60.7282C120.762 27.5683 93.721 0.599609 60.6335 0.599609ZM114.655 60.7282C114.655 90.5516 90.3846 114.822 60.5612 114.822C30.7378 114.822 6.46715 90.5516 6.46715 60.7282C6.46715 30.9048 30.7378 6.63415 60.5612 6.63415C90.3846 6.63415 114.655 30.8687 114.655 60.7282Z" fill="#00492A"/>
</g>
<path fill-rule="evenodd" clip-rule="evenodd" d="M64.849 111.702C65.5356 109.438 65.909 106.86 65.7042 103.777C65.5356 100.657 64.7768 97.0317 63.0302 93.9121C61.6932 91.5392 59.7781 89.4554 58.5736 87.8052L57.622 87.6366L57.5498 87.733L54.1892 86.9862C48.9496 85.854 43.8064 84.6856 38.6632 83.0716C33.0382 81.3612 26.558 78.8558 22.27 74.7123C18.2952 70.9423 15.7296 65.0041 17.717 59.5236C19.7044 54.1034 25.3535 51.1644 30.8822 51.056C37.6274 50.9596 43.7342 54.7538 48.3233 59.4152C51.178 62.306 53.852 65.9677 56.2489 69.6655C56.2489 69.5691 56.2489 69.4607 56.2489 69.2921C56.0441 65.1125 57.2005 61.0292 58.7181 58.4637C60.2238 55.886 62.0787 54.8261 64.9213 54.1034C67.7639 53.4168 71.6785 53.0796 72.329 54.6936C72.9794 56.2956 70.3415 59.7645 68.1132 62.571C65.8849 65.3895 63.9216 67.5094 62.7653 69.81C61.5969 72.1106 61.1512 74.5678 62.0787 78.2054C62.9941 81.8068 65.3308 86.5044 67.0412 90.3708C68.7637 94.177 69.92 97.1281 71.0522 100.489C72.1844 103.849 73.2203 107.619 73.6298 110.739C74.0755 113.859 73.8948 116.195 72.6662 117.424C71.3654 118.652 68.9684 118.725 67.0774 118.592C65.1622 118.484 63.7529 118.147 63.5482 117.05C63.235 116.051 64.1986 114.027 64.849 111.702Z" fill="#00492A"/>
<path fill-rule="evenodd" clip-rule="evenodd" d="M64.5725 65.0041L62.9706 65.7991L61.7299 65.6305C61.4529 65.5582 61.2481 65.522 60.9831 65.4498C56.7915 64.1128 57.9237 59.078 58.5139 55.8499C59.8148 49.2011 61.8745 41.3237 64.958 35.2891C67.897 29.4594 72.6668 23.9789 79.1108 22.124C84.4227 20.5822 90.7343 21.6783 94.2634 26.2313C97.7926 30.9048 97.1061 37.2766 94.4321 42.1427C91.5533 47.3943 86.1451 51.6703 81.2669 54.9947C76.8825 58.0542 72.2572 60.7281 67.5958 63.366L64.5725 65.0764V65.0041Z" fill="#00492A"/>
<mask id="mask1_208_394" style="mask-type:luminance" maskUnits="userSpaceOnUse" x="59" y="23" width="35" height="41">
<path d="M59.5254 23.4609H93.4441V63.5467H59.5254V23.4609Z" fill="white"/>
</mask>
<g mask="url(#mask1_208_394)">
<mask id="mask2_208_394" style="mask-type:luminance" maskUnits="userSpaceOnUse" x="61" y="25" width="32" height="37">
<path fill-rule="evenodd" clip-rule="evenodd" d="M62.4528 56.6448C63.308 52.0798 65.4038 43.3472 68.5596 37.144C71.7033 30.9288 75.9914 27.231 80.2794 25.9301C84.6276 24.6293 88.9518 25.8217 91.144 28.6764C93.3361 31.519 93.3 36.072 90.9753 40.2877C88.6747 44.4794 84.0495 48.3097 79.0147 51.8148C73.9678 55.3078 68.5235 58.3552 65.6086 60.0054L65.2954 60.174L65.3677 60.0777C67.3551 57.0182 70.1255 53.4168 73.2812 50.1646C76.437 46.9125 79.9662 43.9615 81.785 42.3474C83.6038 40.7093 83.6761 40.36 81.3393 41.6609C79.0387 42.9015 74.3171 45.7441 70.3664 50.0321C66.8733 53.7661 63.9946 58.5961 62.1758 61.8242C61.8987 61.6194 61.5976 61.1978 62.4528 56.6448Z" fill="white"/>
</mask>
<g mask="url(#mask2_208_394)">
<path d="M61.5977 24.6294V61.8243H93.3362V24.6294H61.5977Z" fill="url(#paint0_linear_208_394)"/>
</g>
</g>
<mask id="mask3_208_394" style="mask-type:luminance" maskUnits="userSpaceOnUse" x="62" y="26" width="32" height="35">
<path d="M62.6084 26.5444H93.4436V60.4631H62.6084V26.5444Z" fill="white"/>
</mask>
<g mask="url(#mask3_208_394)">
<mask id="mask4_208_394" style="mask-type:luminance" maskUnits="userSpaceOnUse" x="65" y="26" width="27" height="35">
<path fill-rule="evenodd" clip-rule="evenodd" d="M90.3846 29.8329C88.6742 27.6407 85.6269 26.4724 82.3627 26.7133C85.0126 26.918 87.3011 28.0141 88.6742 29.8329C90.8303 32.6153 90.7701 36.9997 88.5779 41.0829C86.3134 45.1662 81.8929 48.9001 76.9906 52.2245C73.353 54.7299 69.4504 57.0546 66.5355 58.765C66.1501 59.319 65.849 59.8008 65.4997 60.2826L65.4395 60.379L65.7406 60.2104C68.523 58.5963 73.8348 55.6212 78.701 52.2968C83.5672 48.9363 88.0238 45.2264 90.2883 41.1552C92.4804 37.0719 92.4804 32.6514 90.3846 29.8329Z" fill="white"/>
</mask>
<g mask="url(#mask4_208_394)">
<path d="M65.4395 26.4722V60.3788H92.4804V26.4722H65.4395Z" fill="url(#paint1_linear_208_394)"/>
</g>
</g>
<mask id="mask5_208_394" style="mask-type:luminance" maskUnits="userSpaceOnUse" x="19" y="54" width="41" height="32">
<path d="M19.4395 54.2964H59.5252V85.1316H19.4395V54.2964Z" fill="white"/>
</mask>
<g mask="url(#mask5_208_394)">
<mask id="mask6_208_394" style="mask-type:luminance" maskUnits="userSpaceOnUse" x="20" y="55" width="39" height="29">
<path fill-rule="evenodd" clip-rule="evenodd" d="M57.14 79.0968C54.9478 74.9895 50.3828 67.2687 45.5166 62.27C40.6504 57.2954 35.435 55.031 30.9422 55.1032C26.4614 55.1755 22.6552 57.5725 21.4146 60.933C20.186 64.2936 21.5832 68.6418 25.016 71.9662C28.4489 75.2906 33.9655 77.5912 39.7952 79.3739C45.613 81.1927 51.7559 82.4935 55.0081 83.1801L55.3212 83.2524L55.2128 83.144C52.4425 80.8434 48.7326 78.2778 44.7216 76.0856C40.7468 73.9175 36.4708 72.171 34.2666 71.1472C32.0744 70.1113 31.8696 69.8102 34.4473 70.3522C37.0128 70.834 42.3247 72.171 47.3956 75.0859C51.792 77.5912 56.0439 81.3613 58.7179 83.8667C58.7179 83.8667 58.7781 83.8667 58.7781 83.7944C59.1274 83.686 59.3322 83.2162 57.14 79.0968Z" fill="white"/>
</mask>
<g mask="url(#mask6_208_394)">
<path d="M20.1855 55.0308V83.8665H59.3317V55.0308H20.1855Z" fill="url(#paint2_linear_208_394)"/>
</g>
</g>
<mask id="mask7_208_394" style="mask-type:luminance" maskUnits="userSpaceOnUse" x="19" y="54" width="41" height="32">
<path d="M19.4395 54.2964H59.5252V85.1316H19.4395V54.2964Z" fill="white"/>
</mask>
<g mask="url(#mask7_208_394)">
<mask id="mask8_208_394" style="mask-type:luminance" maskUnits="userSpaceOnUse" x="21" y="55" width="38" height="29">
<path fill-rule="evenodd" clip-rule="evenodd" d="M22.4149 63.5349C23.5712 60.3069 27.1727 58.0785 31.4607 57.9461C35.6764 57.8738 40.6149 59.9696 45.2402 64.7394C49.8413 69.4611 54.1896 76.7362 56.2131 80.6388C56.5865 81.3976 56.8997 81.9758 57.1767 82.4576C57.3815 82.6624 57.6224 82.831 57.8272 83.0358C57.8272 83.0358 57.8874 83.0358 57.8874 82.9755C58.1644 82.7949 58.3331 82.3251 56.2854 78.4828C54.1896 74.6043 49.9016 67.2689 45.3124 62.5713C40.5788 57.9099 35.7126 55.79 31.4246 55.8261C27.2088 55.8864 23.5471 58.187 22.3788 61.415C22.0054 62.475 21.897 63.7036 22.0656 64.9442C22.1017 64.4985 22.2101 64.0167 22.4149 63.5349Z" fill="white"/>
</mask>
<g mask="url(#mask8_208_394)">
<path d="M21.8975 55.79V83.0358H58.3335V55.79H21.8975Z" fill="url(#paint3_linear_208_394)"/>
</g>
</g>
<defs>
<linearGradient id="paint0_linear_208_394" x1="77.323" y1="24.6256" x2="77.323" y2="61.8202" gradientUnits="userSpaceOnUse">
<stop stop-color="#72AD43"/>
<stop offset="0.0625" stop-color="#72AD43"/>
<stop offset="0.0703125" stop-color="#72AD43"/>
<stop offset="0.078125" stop-color="#71AC43"/>
<stop offset="0.0859375" stop-color="#71AC43"/>
<stop offset="0.09375" stop-color="#70AB43"/>
<stop offset="0.101562" stop-color="#6FAB43"/>
<stop offset="0.109375" stop-color="#6FAB43"/>
<stop offset="0.117187" stop-color="#6EAA43"/>
<stop offset="0.125" stop-color="#6EAA43"/>
<stop offset="0.132812" stop-color="#6DA943"/>
<stop offset="0.140625" stop-color="#6DA943"/>
<stop offset="0.148437" stop-color="#6CA843"/>
<stop offset="0.15625" stop-color="#6BA843"/>
<stop offset="0.164062" stop-color="#6BA743"/>
<stop offset="0.171875" stop-color="#6AA743"/>
<stop offset="0.179687" stop-color="#6AA743"/>
<stop offset="0.1875" stop-color="#69A643"/>
<stop offset="0.195312" stop-color="#68A643"/>
<stop offset="0.203125" stop-color="#68A542"/>
<stop offset="0.210937" stop-color="#67A542"/>
<stop offset="0.21875" stop-color="#67A442"/>
<stop offset="0.226562" stop-color="#66A442"/>
<stop offset="0.234375" stop-color="#66A342"/>
<stop offset="0.242187" stop-color="#65A342"/>
<stop offset="0.25" stop-color="#64A342"/>
<stop offset="0.257812" stop-color="#64A242"/>
<stop offset="0.265625" stop-color="#63A242"/>
<stop offset="0.273437" stop-color="#63A142"/>
<stop offset="0.28125" stop-color="#62A142"/>
<stop offset="0.289062" stop-color="#62A042"/>
<stop offset="0.296875" stop-color="#61A042"/>
<stop offset="0.304687" stop-color="#609F42"/>
<stop offset="0.3125" stop-color="#609F42"/>
<stop offset="0.320312" stop-color="#5F9F42"/>
<stop offset="0.328125" stop-color="#5F9E42"/>
<stop offset="0.335937" stop-color="#5E9E42"/>
<stop offset="0.34375" stop-color="#5D9D42"/>
<stop offset="0.351562" stop-color="#5D9D42"/>
<stop offset="0.359375" stop-color="#5C9C42"/>
<stop offset="0.367187" stop-color="#5C9C42"/>
<stop offset="0.375" stop-color="#5B9B42"/>
<stop offset="0.382812" stop-color="#5B9B42"/>
<stop offset="0.390625" stop-color="#5A9B42"/>
<stop offset="0.398437" stop-color="#599A42"/>
<stop offset="0.40625" stop-color="#599A42"/>
<stop offset="0.414062" stop-color="#589942"/>
<stop offset="0.421875" stop-color="#589942"/>
<stop offset="0.429687" stop-color="#579841"/>
<stop offset="0.4375" stop-color="#579841"/>
<stop offset="0.445312" stop-color="#569741"/>
<stop offset="0.453125" stop-color="#559741"/>
<stop offset="0.460938" stop-color="#559741"/>
<stop offset="0.46875" stop-color="#549641"/>
<stop offset="0.476562" stop-color="#549641"/>
<stop offset="0.484375" stop-color="#539541"/>
<stop offset="0.492187" stop-color="#529541"/>
<stop offset="0.5" stop-color="#529441"/>
<stop offset="0.507812" stop-color="#519441"/>
<stop offset="0.515625" stop-color="#519341"/>
<stop offset="0.523438" stop-color="#509341"/>
<stop offset="0.53125" stop-color="#509341"/>
<stop offset="0.539062" stop-color="#4F9241"/>
<stop offset="0.546875" stop-color="#4E9241"/>
<stop offset="0.554687" stop-color="#4E9141"/>
<stop offset="0.5625" stop-color="#4D9141"/>
<stop offset="0.570312" stop-color="#4D9041"/>
<stop offset="0.578125" stop-color="#4C9041"/>
<stop offset="0.585938" stop-color="#4C8F41"/>
<stop offset="0.59375" stop-color="#4B8F41"/>
<stop offset="0.601562" stop-color="#4A8F41"/>
<stop offset="0.609375" stop-color="#4A8E41"/>
<stop offset="0.617187" stop-color="#498E41"/>
<stop offset="0.625" stop-color="#498D41"/>
<stop offset="0.632812" stop-color="#488D41"/>
<stop offset="0.640625" stop-color="#478C41"/>
<stop offset="0.648438" stop-color="#478C41"/>
<stop offset="0.65625" stop-color="#468B40"/>
<stop offset="0.664062" stop-color="#468B40"/>
<stop offset="0.671875" stop-color="#458B40"/>
<stop offset="0.679687" stop-color="#458A40"/>
<stop offset="0.6875" stop-color="#448A40"/>
<stop offset="0.695312" stop-color="#438940"/>
<stop offset="0.703125" stop-color="#438940"/>
<stop offset="0.710938" stop-color="#428840"/>
<stop offset="0.71875" stop-color="#428840"/>
<stop offset="0.726562" stop-color="#418740"/>
<stop offset="0.734375" stop-color="#408740"/>
<stop offset="0.742188" stop-color="#408740"/>
<stop offset="0.75" stop-color="#3F8640"/>
<stop offset="0.757812" stop-color="#3F8640"/>
<stop offset="0.765625" stop-color="#3E8540"/>
<stop offset="0.78125" stop-color="#3E8540"/>
<stop offset="0.8125" stop-color="#3E8540"/>
<stop offset="0.875" stop-color="#3E8540"/>
<stop offset="1" stop-color="#3E8540"/>
</linearGradient>
<linearGradient id="paint1_linear_208_394" x1="89.5936" y1="25.1557" x2="72.0853" y2="63.4237" gradientUnits="userSpaceOnUse">
<stop stop-color="#72AD43"/>
<stop offset="0.015625" stop-color="#72AD43"/>
<stop offset="0.0195312" stop-color="#71AC43"/>
<stop offset="0.0234375" stop-color="#71AC43"/>
<stop offset="0.0273438" stop-color="#70AC43"/>
<stop offset="0.03125" stop-color="#70AB43"/>
<stop offset="0.0351562" stop-color="#6FAB43"/>
<stop offset="0.0390625" stop-color="#6FAA43"/>
<stop offset="0.0429688" stop-color="#6EAA43"/>
<stop offset="0.046875" stop-color="#6EA943"/>
<stop offset="0.0507813" stop-color="#6DA943"/>
<stop offset="0.0546875" stop-color="#6CA943"/>
<stop offset="0.0585938" stop-color="#6CA843"/>
<stop offset="0.0625" stop-color="#6BA843"/>
<stop offset="0.0664063" stop-color="#6BA743"/>
<stop offset="0.0703125" stop-color="#6AA743"/>
<stop offset="0.0742188" stop-color="#6AA643"/>
<stop offset="0.078125" stop-color="#69A643"/>
<stop offset="0.0820312" stop-color="#68A642"/>
<stop offset="0.0859375" stop-color="#68A542"/>
<stop offset="0.0898438" stop-color="#67A542"/>
<stop offset="0.09375" stop-color="#67A442"/>
<stop offset="0.0976562" stop-color="#66A442"/>
<stop offset="0.101562" stop-color="#66A342"/>
<stop offset="0.105469" stop-color="#65A342"/>
<stop offset="0.109375" stop-color="#64A342"/>
<stop offset="0.113281" stop-color="#64A242"/>
<stop offset="0.117188" stop-color="#63A242"/>
<stop offset="0.121094" stop-color="#63A142"/>
<stop offset="0.125" stop-color="#62A142"/>
<stop offset="0.128906" stop-color="#62A042"/>
<stop offset="0.132812" stop-color="#61A042"/>
<stop offset="0.136719" stop-color="#609F42"/>
<stop offset="0.140625" stop-color="#609F42"/>
<stop offset="0.144531" stop-color="#5F9F42"/>
<stop offset="0.148438" stop-color="#5F9E42"/>
<stop offset="0.152344" stop-color="#5E9E42"/>
<stop offset="0.15625" stop-color="#5E9D42"/>
<stop offset="0.160156" stop-color="#5D9D42"/>
<stop offset="0.164062" stop-color="#5C9C42"/>
<stop offset="0.167969" stop-color="#5C9C42"/>
<stop offset="0.171875" stop-color="#5B9C42"/>
<stop offset="0.175781" stop-color="#5B9B42"/>
<stop offset="0.179688" stop-color="#5A9B42"/>
<stop offset="0.183594" stop-color="#5A9A42"/>
<stop offset="0.1875" stop-color="#599A42"/>
<stop offset="0.191406" stop-color="#589942"/>
<stop offset="0.195313" stop-color="#589942"/>
<stop offset="0.199219" stop-color="#579941"/>
<stop offset="0.203125" stop-color="#579841"/>
<stop offset="0.207031" stop-color="#569841"/>
<stop offset="0.210938" stop-color="#569741"/>
<stop offset="0.214844" stop-color="#559741"/>
<stop offset="0.21875" stop-color="#549641"/>
<stop offset="0.222656" stop-color="#549641"/>
<stop offset="0.226563" stop-color="#539541"/>
<stop offset="0.230469" stop-color="#539541"/>
<stop offset="0.234375" stop-color="#529541"/>
<stop offset="0.238281" stop-color="#529441"/>
<stop offset="0.242188" stop-color="#519441"/>
<stop offset="0.246094" stop-color="#519341"/>
<stop offset="0.25" stop-color="#509341"/>
<stop offset="0.253906" stop-color="#4F9241"/>
<stop offset="0.257812" stop-color="#4F9241"/>
<stop offset="0.261719" stop-color="#4E9241"/>
<stop offset="0.265625" stop-color="#4E9141"/>
<stop offset="0.269531" stop-color="#4D9141"/>
<stop offset="0.273438" stop-color="#4D9041"/>
<stop offset="0.277344" stop-color="#4C9041"/>
<stop offset="0.28125" stop-color="#4B8F41"/>
<stop offset="0.285156" stop-color="#4B8F41"/>
<stop offset="0.289063" stop-color="#4A8F41"/>
<stop offset="0.292969" stop-color="#4A8E41"/>
<stop offset="0.296875" stop-color="#498E41"/>
<stop offset="0.300781" stop-color="#498D41"/>
<stop offset="0.304688" stop-color="#488D41"/>
<stop offset="0.308594" stop-color="#478C41"/>
<stop offset="0.3125" stop-color="#478C41"/>
<stop offset="0.316406" stop-color="#468B40"/>
<stop offset="0.320313" stop-color="#468B40"/>
<stop offset="0.324219" stop-color="#458B40"/>
<stop offset="0.328125" stop-color="#458A40"/>
<stop offset="0.332031" stop-color="#448A40"/>
<stop offset="0.335938" stop-color="#438940"/>
<stop offset="0.339844" stop-color="#438940"/>
<stop offset="0.34375" stop-color="#428840"/>
<stop offset="0.347656" stop-color="#428840"/>
<stop offset="0.351562" stop-color="#418840"/>
<stop offset="0.355469" stop-color="#418740"/>
<stop offset="0.359375" stop-color="#408740"/>
<stop offset="0.363281" stop-color="#3F8640"/>
<stop offset="0.367188" stop-color="#3F8640"/>
<stop offset="0.375" stop-color="#3E8540"/>
<stop offset="0.5" stop-color="#3E8540"/>
<stop offset="0.732603" stop-color="#3E8540"/>
<stop offset="1" stop-color="#3E8540"/>
</linearGradient>
<linearGradient id="paint2_linear_208_394" x1="39.9851" y1="55.0324" x2="39.9851" y2="83.8625" gradientUnits="userSpaceOnUse">
<stop stop-color="#72AD43"/>
<stop offset="0.015625" stop-color="#72AD43"/>
<stop offset="0.03125" stop-color="#71AC43"/>
<stop offset="0.046875" stop-color="#70AB43"/>
<stop offset="0.0625" stop-color="#6FAB43"/>
<stop offset="0.078125" stop-color="#6EAA43"/>
<stop offset="0.09375" stop-color="#6DA943"/>
<stop offset="0.109375" stop-color="#6CA943"/>
<stop offset="0.125" stop-color="#6CA843"/>
<stop offset="0.140625" stop-color="#6BA743"/>
<stop offset="0.15625" stop-color="#6AA743"/>
<stop offset="0.171875" stop-color="#69A643"/>
<stop offset="0.1875" stop-color="#68A542"/>
<stop offset="0.203125" stop-color="#67A442"/>
<stop offset="0.21875" stop-color="#66A442"/>
<stop offset="0.234375" stop-color="#65A342"/>
<stop offset="0.25" stop-color="#64A242"/>
<stop offset="0.265625" stop-color="#63A242"/>
<stop offset="0.28125" stop-color="#62A142"/>
<stop offset="0.296875" stop-color="#62A042"/>
<stop offset="0.3125" stop-color="#61A042"/>
<stop offset="0.328125" stop-color="#609F42"/>
<stop offset="0.34375" stop-color="#5F9E42"/>
<stop offset="0.359375" stop-color="#5E9E42"/>
<stop offset="0.375" stop-color="#5D9D42"/>
<stop offset="0.390625" stop-color="#5C9C42"/>
<stop offset="0.40625" stop-color="#5B9B42"/>
<stop offset="0.421875" stop-color="#5A9B42"/>
<stop offset="0.4375" stop-color="#599A42"/>
<stop offset="0.453125" stop-color="#589942"/>
<stop offset="0.46875" stop-color="#589942"/>
<stop offset="0.484375" stop-color="#579841"/>
<stop offset="0.5" stop-color="#569741"/>
<stop offset="0.515625" stop-color="#559741"/>
<stop offset="0.53125" stop-color="#549641"/>
<stop offset="0.546875" stop-color="#539541"/>
<stop offset="0.5625" stop-color="#529441"/>
<stop offset="0.578125" stop-color="#519441"/>
<stop offset="0.59375" stop-color="#509341"/>
<stop offset="0.609375" stop-color="#4F9241"/>
<stop offset="0.625" stop-color="#4E9241"/>
<stop offset="0.640625" stop-color="#4E9141"/>
<stop offset="0.65625" stop-color="#4D9041"/>
<stop offset="0.671875" stop-color="#4C9041"/>
<stop offset="0.6875" stop-color="#4B8F41"/>
<stop offset="0.703125" stop-color="#4A8E41"/>
<stop offset="0.71875" stop-color="#498E41"/>
<stop offset="0.734375" stop-color="#488D41"/>
<stop offset="0.75" stop-color="#478C41"/>
<stop offset="0.765625" stop-color="#468B40"/>
<stop offset="0.78125" stop-color="#458B40"/>
<stop offset="0.796875" stop-color="#448A40"/>
<stop offset="0.8125" stop-color="#448940"/>
<stop offset="0.828125" stop-color="#438940"/>
<stop offset="0.84375" stop-color="#428840"/>
<stop offset="0.859375" stop-color="#418740"/>
<stop offset="0.875" stop-color="#408740"/>
<stop offset="0.890625" stop-color="#3F8640"/>
<stop offset="0.90625" stop-color="#3E8540"/>
<stop offset="0.9375" stop-color="#3E8540"/>
<stop offset="1" stop-color="#3E8540"/>
</linearGradient>
<linearGradient id="paint3_linear_208_394" x1="40.0213" y1="55.787" x2="40.0213" y2="83.0402" gradientUnits="userSpaceOnUse">
<stop stop-color="#609F42"/>
<stop offset="0.00390625" stop-color="#5F9E42"/>
<stop offset="0.0078125" stop-color="#5F9E42"/>
<stop offset="0.0117187" stop-color="#5E9E42"/>
<stop offset="0.015625" stop-color="#5E9D42"/>
<stop offset="0.0195312" stop-color="#5D9D42"/>
<stop offset="0.0234375" stop-color="#5C9C42"/>
<stop offset="0.0273437" stop-color="#5C9C42"/>
<stop offset="0.03125" stop-color="#5B9C42"/>
<stop offset="0.0351562" stop-color="#5B9B42"/>
<stop offset="0.0390625" stop-color="#5A9B42"/>
<stop offset="0.0429687" stop-color="#5A9A42"/>
<stop offset="0.046875" stop-color="#599A42"/>
<stop offset="0.0507812" stop-color="#599A42"/>
<stop offset="0.0546875" stop-color="#589942"/>
<stop offset="0.0585937" stop-color="#589942"/>
<stop offset="0.0625" stop-color="#579941"/>
<stop offset="0.0664062" stop-color="#579841"/>
<stop offset="0.0703125" stop-color="#569841"/>
<stop offset="0.0742187" stop-color="#569741"/>
<stop offset="0.078125" stop-color="#559741"/>
<stop offset="0.0820312" stop-color="#559741"/>
<stop offset="0.0859375" stop-color="#549641"/>
<stop offset="0.0898437" stop-color="#549641"/>
<stop offset="0.09375" stop-color="#539541"/>
<stop offset="0.0976562" stop-color="#539541"/>
<stop offset="0.101562" stop-color="#529541"/>
<stop offset="0.105469" stop-color="#529441"/>
<stop offset="0.109375" stop-color="#519441"/>
<stop offset="0.113281" stop-color="#519341"/>
<stop offset="0.117187" stop-color="#509341"/>
<stop offset="0.121094" stop-color="#509341"/>
<stop offset="0.125" stop-color="#4F9241"/>
<stop offset="0.128906" stop-color="#4F9241"/>
<stop offset="0.132812" stop-color="#4E9141"/>
<stop offset="0.136719" stop-color="#4E9141"/>
<stop offset="0.140625" stop-color="#4D9141"/>
<stop offset="0.144531" stop-color="#4D9041"/>
<stop offset="0.148438" stop-color="#4C9041"/>
<stop offset="0.152344" stop-color="#4C8F41"/>
<stop offset="0.15625" stop-color="#4B8F41"/>
<stop offset="0.160156" stop-color="#4B8F41"/>
<stop offset="0.164062" stop-color="#4A8E41"/>
<stop offset="0.167969" stop-color="#498E41"/>
<stop offset="0.171875" stop-color="#498E41"/>
<stop offset="0.175781" stop-color="#488D41"/>
<stop offset="0.179687" stop-color="#488D41"/>
<stop offset="0.183594" stop-color="#478C41"/>
<stop offset="0.1875" stop-color="#478C41"/>
<stop offset="0.191406" stop-color="#468C40"/>
<stop offset="0.195312" stop-color="#468B40"/>
<stop offset="0.199219" stop-color="#458B40"/>
<stop offset="0.203125" stop-color="#458A40"/>
<stop offset="0.207031" stop-color="#448A40"/>
<stop offset="0.210937" stop-color="#448A40"/>
<stop offset="0.214844" stop-color="#438940"/>
<stop offset="0.21875" stop-color="#438940"/>
<stop offset="0.222656" stop-color="#428840"/>
<stop offset="0.226562" stop-color="#428840"/>
<stop offset="0.230469" stop-color="#418840"/>
<stop offset="0.234375" stop-color="#418740"/>
<stop offset="0.238281" stop-color="#408740"/>
<stop offset="0.242187" stop-color="#408640"/>
<stop offset="0.246094" stop-color="#3F8640"/>
<stop offset="0.25" stop-color="#3F8640"/>
<stop offset="0.5" stop-color="#3E8540"/>
<stop offset="1" stop-color="#3E8540"/>
</linearGradient>
</defs>
</svg>
