<svg width="466" height="121" viewBox="0 0 466 121" fill="none" xmlns="http://www.w3.org/2000/svg">
<path d="M169.705 85.6729C166.431 85.6729 163.425 85.0897 160.688 83.9233C157.952 82.7569 155.574 81.0971 153.555 78.9437C151.537 76.7455 149.967 74.166 148.845 71.2052C147.768 68.2443 147.23 64.9919 147.23 61.4479C147.23 58.0833 147.813 54.9654 148.98 52.0943C150.191 49.1783 151.851 46.6212 153.959 44.423C156.068 42.2248 158.513 40.5201 161.294 39.3088C164.075 38.0976 167.081 37.492 170.311 37.492C172.599 37.492 174.82 37.8508 176.973 38.5686C179.171 39.2415 181.145 40.2061 182.895 41.4622C184.689 42.6734 186.147 44.0641 187.269 45.6343L182.424 50.6812C181.123 49.3802 179.799 48.3035 178.453 47.4512C177.152 46.5539 175.807 45.881 174.416 45.4324C173.07 44.9838 171.702 44.7595 170.311 44.7595C168.113 44.7595 166.049 45.1857 164.12 46.038C162.236 46.8455 160.576 47.9895 159.141 49.4699C157.75 50.9503 156.651 52.7223 155.843 54.786C155.036 56.8047 154.632 59.0253 154.632 61.4479C154.632 64.0049 155.013 66.3377 155.776 68.4462C156.584 70.5098 157.705 72.2818 159.141 73.7623C160.576 75.2427 162.281 76.3866 164.255 77.1941C166.274 77.9568 168.494 78.3381 170.917 78.3381C172.397 78.3381 173.855 78.1362 175.291 77.7325C176.726 77.3287 178.072 76.7455 179.328 75.9829C180.584 75.2203 181.728 74.323 182.76 73.2912L186.394 79.2129C185.362 80.4242 183.949 81.5233 182.154 82.5102C180.405 83.4971 178.431 84.2822 176.233 84.8654C174.079 85.4038 171.904 85.6729 169.705 85.6729ZM195.661 85L195.661 49.6718H202.592L202.592 85H195.661ZM199.025 41.8659C197.545 41.8659 196.401 41.4846 195.593 40.722C194.786 39.9593 194.382 38.8827 194.382 37.492C194.382 36.191 194.786 35.1367 195.593 34.3292C196.446 33.5217 197.59 33.118 199.025 33.118C200.506 33.118 201.65 33.4993 202.457 34.262C203.265 35.0246 203.668 36.1013 203.668 37.492C203.668 38.7929 203.242 39.8472 202.39 40.6547C201.582 41.4622 200.461 41.8659 199.025 41.8659ZM213.245 85V49.6718L220.244 49.6718V60.7749L219.571 58.0833C220.064 56.3785 220.894 54.8308 222.061 53.4401C223.272 52.0494 224.64 50.9503 226.165 50.1428C227.736 49.3353 229.351 48.9316 231.01 48.9316C231.773 48.9316 232.491 48.9989 233.164 49.1334C233.882 49.268 234.442 49.425 234.846 49.6045L233.029 57.1412C232.491 56.9169 231.885 56.7374 231.212 56.6028C230.584 56.4234 229.956 56.3337 229.328 56.3337C228.117 56.3337 226.951 56.5804 225.829 57.0739C224.752 57.5225 223.788 58.173 222.935 59.0253C222.128 59.8329 221.477 60.7974 220.984 61.9189C220.49 62.9956 220.244 64.1844 220.244 65.4854V85H213.245ZM253.88 85.6729C250.605 85.6729 247.667 84.8654 245.065 83.2504C242.508 81.6354 240.467 79.4372 238.941 76.6558C237.461 73.8744 236.721 70.7566 236.721 67.3022C236.721 63.8479 237.461 60.7301 238.941 57.9487C240.467 55.1673 242.508 52.9691 245.065 51.3541C247.667 49.7391 250.605 48.9316 253.88 48.9316C257.021 48.9316 259.869 49.5821 262.426 50.883C265.028 52.1391 267.002 53.8663 268.348 56.0645L264.512 60.7749C263.795 59.7431 262.875 58.801 261.753 57.9487C260.632 57.0963 259.443 56.4234 258.187 55.9299C256.931 55.4365 255.72 55.1897 254.553 55.1897C252.4 55.1897 250.471 55.728 248.766 56.8047C247.106 57.8365 245.783 59.2721 244.796 61.1114C243.809 62.9507 243.315 65.0143 243.315 67.3022C243.315 69.5902 243.831 71.6538 244.863 73.4931C245.895 75.2875 247.263 76.7231 248.968 77.7998C250.673 78.8764 252.557 79.4148 254.62 79.4148C255.832 79.4148 256.998 79.2129 258.12 78.8092C259.286 78.4054 260.408 77.7998 261.484 76.9923C262.561 76.1848 263.57 75.1978 264.512 74.0314L268.348 78.7419C266.912 80.7606 264.849 82.4205 262.157 83.7215C259.51 85.0224 256.751 85.6729 253.88 85.6729ZM275.02 85V35.204L281.951 35.204V85H275.02ZM307.604 85.6729C303.97 85.6729 300.74 84.9103 297.914 83.385C295.132 81.8149 292.934 79.6839 291.319 76.9923C289.749 74.3006 288.964 71.2052 288.964 67.706C288.964 64.9246 289.413 62.3899 290.31 60.102C291.207 57.8141 292.441 55.8402 294.011 54.1803C295.626 52.4756 297.532 51.1746 299.731 50.2774C301.974 49.3353 304.396 48.8643 306.998 48.8643C309.286 48.8643 311.417 49.3129 313.391 50.2101C315.365 51.0625 317.07 52.2513 318.505 53.7766C319.986 55.3019 321.107 57.1187 321.87 59.2272C322.677 61.2908 323.059 63.5563 323.014 66.0237L322.946 68.9845L294.078 68.9845L292.53 63.4666L316.957 63.4666L315.948 64.6106V62.9956C315.813 61.5151 315.32 60.1917 314.468 59.0253C313.615 57.859 312.539 56.9393 311.238 56.2664C309.937 55.5935 308.523 55.257 306.998 55.257C304.576 55.257 302.534 55.728 300.875 56.6701C299.215 57.5674 297.959 58.9132 297.106 60.7076C296.254 62.4572 295.828 64.633 295.828 67.235C295.828 69.7023 296.344 71.8557 297.375 73.695C298.407 75.4894 299.865 76.8801 301.749 77.8671C303.634 78.854 305.809 79.3475 308.277 79.3475C310.026 79.3475 311.641 79.0559 313.122 78.4727C314.647 77.8895 316.284 76.8353 318.034 75.31L321.533 80.2223C320.457 81.2989 319.133 82.241 317.563 83.0485C316.038 83.856 314.4 84.5065 312.651 85C310.946 85.4486 309.264 85.6729 307.604 85.6729ZM332.296 85V37.8957H339.563V85H332.296ZM335.526 64.947V57.9487H359.818V64.947H335.526ZM335.526 44.8941V37.8957L362.846 37.8957V44.8941L335.526 44.8941ZM372.17 85V49.6718H379.101V85H372.17ZM375.535 41.8659C374.055 41.8659 372.911 41.4846 372.103 40.722C371.296 39.9593 370.892 38.8827 370.892 37.492C370.892 36.191 371.296 35.1367 372.103 34.3292C372.955 33.5217 374.099 33.118 375.535 33.118C377.015 33.118 378.159 33.4993 378.967 34.262C379.774 35.0246 380.178 36.1013 380.178 37.492C380.178 38.7929 379.752 39.8472 378.9 40.6547C378.092 41.4622 376.97 41.8659 375.535 41.8659ZM389.755 85V49.6718L396.686 49.6718V56.9393L395.475 57.7468C395.923 56.1767 396.798 54.7411 398.099 53.4401C399.4 52.0943 400.948 51.0176 402.742 50.2101C404.537 49.3578 406.376 48.9316 408.26 48.9316C410.952 48.9316 413.195 49.4699 414.99 50.5466C416.784 51.5784 418.13 53.171 419.027 55.3243C419.924 57.4776 420.373 60.1917 420.373 63.4666V85H413.442V63.9377C413.442 61.9189 413.173 60.259 412.634 58.9581C412.096 57.6122 411.266 56.6477 410.144 56.0645C409.023 55.4365 407.632 55.1673 405.972 55.257C404.627 55.257 403.393 55.4813 402.271 55.9299C401.15 56.3337 400.163 56.9169 399.311 57.6795C398.503 58.4422 397.853 59.3394 397.359 60.3712C396.91 61.3581 396.686 62.4348 396.686 63.6012V85H393.254C392.671 85 392.088 85 391.505 85C390.921 85 390.338 85 389.755 85Z" fill="#292A2C"/>
<path d="M127.388 113.193C126.447 113.193 125.583 113.026 124.796 112.691C124.01 112.355 123.326 111.878 122.746 111.259C122.166 110.628 121.715 109.886 121.392 109.035C121.083 108.184 120.928 107.25 120.928 106.231C120.928 105.264 121.096 104.368 121.431 103.543C121.779 102.705 122.256 101.97 122.862 101.338C123.468 100.706 124.171 100.216 124.97 99.8681C125.77 99.52 126.634 99.346 127.562 99.346C128.22 99.346 128.858 99.4491 129.477 99.6554C130.108 99.8488 130.676 100.126 131.179 100.487C131.694 100.835 132.113 101.235 132.436 101.686L131.043 103.137C130.669 102.763 130.289 102.453 129.902 102.208C129.528 101.95 129.141 101.757 128.742 101.628C128.355 101.499 127.962 101.435 127.562 101.435C126.93 101.435 126.337 101.557 125.783 101.802C125.241 102.034 124.764 102.363 124.352 102.788C123.952 103.214 123.636 103.723 123.404 104.316C123.172 104.897 123.056 105.535 123.056 106.231C123.056 106.966 123.165 107.636 123.385 108.242C123.617 108.835 123.939 109.345 124.352 109.77C124.764 110.196 125.254 110.524 125.821 110.757C126.402 110.976 127.04 111.085 127.736 111.085C128.161 111.085 128.581 111.027 128.993 110.911C129.406 110.795 129.792 110.628 130.154 110.408C130.515 110.189 130.843 109.931 131.14 109.635L132.184 111.337C131.888 111.685 131.482 112.001 130.966 112.284C130.463 112.568 129.896 112.794 129.264 112.961C128.645 113.116 128.02 113.193 127.388 113.193ZM140.282 113.116C139.238 113.116 138.303 112.89 137.478 112.439C136.653 111.975 136.001 111.343 135.524 110.544C135.06 109.732 134.828 108.816 134.828 107.798V99.4427H136.917V107.623C136.917 108.281 137.072 108.874 137.381 109.403C137.691 109.918 138.097 110.331 138.599 110.641C139.115 110.95 139.676 111.105 140.282 111.105C140.927 111.105 141.507 110.95 142.023 110.641C142.551 110.331 142.97 109.918 143.28 109.403C143.589 108.874 143.744 108.281 143.744 107.623V99.4427H145.736V107.798C145.736 108.816 145.497 109.732 145.02 110.544C144.556 111.343 143.912 111.975 143.086 112.439C142.261 112.89 141.326 113.116 140.282 113.116ZM149.338 113V99.462L151.426 99.462V110.989L157.77 110.989V113L149.338 113ZM161.863 113V101.473H158.073V99.462H167.859V101.473H163.952V113H161.863ZM169.931 113V111.066H172.117V101.396H169.931V99.462H176.391V101.396H174.205V111.066H176.391V113H169.931ZM183.654 113L178.239 99.462H180.617L183.847 107.681C184.002 108.081 184.137 108.442 184.253 108.765C184.382 109.087 184.492 109.383 184.582 109.654C184.672 109.912 184.756 110.157 184.834 110.389C184.911 110.621 184.988 110.853 185.066 111.085L184.563 111.105C184.653 110.795 184.75 110.473 184.853 110.138C184.956 109.802 185.072 109.435 185.201 109.035C185.343 108.636 185.51 108.184 185.704 107.681L188.702 99.462H191.138L185.685 113H183.654ZM190.629 113L195.87 99.462H197.997L203.2 113H200.976L197.881 104.839C197.843 104.748 197.765 104.529 197.649 104.181C197.546 103.833 197.424 103.446 197.282 103.021C197.14 102.595 197.011 102.208 196.895 101.86C196.779 101.499 196.702 101.267 196.663 101.164L197.108 101.145C197.03 101.364 196.934 101.641 196.818 101.976C196.714 102.311 196.598 102.666 196.469 103.04C196.353 103.414 196.237 103.768 196.121 104.104C196.005 104.426 195.909 104.697 195.831 104.916L192.756 113H190.629ZM192.95 109.635L193.723 107.623H199.873L200.763 109.635H192.95ZM207.191 113V101.473L203.401 101.473V99.462L213.187 99.462V101.473H209.28V113H207.191ZM215.259 113V111.066H217.445V101.396H215.259V99.462H221.719V101.396H219.534V111.066H221.719V113H215.259ZM224.998 113V99.462H226.874L235.151 110.544L234.842 110.718C234.79 110.396 234.745 110.047 234.707 109.674C234.668 109.287 234.629 108.881 234.591 108.455C234.565 108.017 234.539 107.559 234.513 107.082C234.5 106.592 234.487 106.083 234.475 105.554C234.462 105.025 234.455 104.478 234.455 103.91V99.462H236.544V113H234.629L226.487 102.324L226.7 102.054C226.764 102.84 226.816 103.511 226.855 104.065C226.906 104.606 226.945 105.071 226.971 105.457C227.009 105.831 227.035 106.141 227.048 106.386C227.061 106.618 227.067 106.811 227.067 106.966C227.08 107.121 227.087 107.256 227.087 107.372V113H224.998ZM246.387 113.193C245.407 113.193 244.492 113.019 243.641 112.671C242.79 112.31 242.042 111.814 241.398 111.182C240.753 110.55 240.25 109.815 239.889 108.977C239.541 108.126 239.367 107.211 239.367 106.231C239.367 105.264 239.541 104.361 239.889 103.523C240.25 102.685 240.747 101.957 241.378 101.338C242.023 100.706 242.771 100.216 243.622 99.8681C244.473 99.52 245.388 99.346 246.368 99.346C247.051 99.346 247.715 99.4427 248.36 99.6361C249.018 99.8295 249.611 100.1 250.139 100.448C250.668 100.796 251.1 101.196 251.435 101.647L250.081 103.059C249.694 102.685 249.295 102.376 248.882 102.131C248.483 101.886 248.07 101.699 247.644 101.57C247.219 101.441 246.793 101.377 246.368 101.377C245.672 101.377 245.027 101.499 244.434 101.744C243.854 101.989 243.338 102.331 242.887 102.769C242.448 103.208 242.107 103.723 241.862 104.316C241.617 104.897 241.494 105.535 241.494 106.231C241.494 106.901 241.623 107.54 241.881 108.146C242.139 108.739 242.494 109.261 242.945 109.712C243.409 110.163 243.938 110.518 244.531 110.776C245.137 111.034 245.775 111.163 246.445 111.163C246.948 111.163 247.425 111.092 247.877 110.95C248.328 110.795 248.727 110.582 249.076 110.312C249.424 110.041 249.694 109.732 249.888 109.383C250.081 109.022 250.178 108.642 250.178 108.242V107.856L250.468 108.126H246.329V106.057H252.325C252.351 106.199 252.37 106.341 252.383 106.482C252.396 106.611 252.402 106.74 252.402 106.869C252.415 106.985 252.421 107.101 252.421 107.217C252.421 108.107 252.267 108.919 251.957 109.654C251.648 110.376 251.216 111.002 250.661 111.53C250.12 112.059 249.482 112.471 248.747 112.768C248.025 113.052 247.238 113.193 246.387 113.193ZM260.562 113V99.462H262.65V113H260.562ZM261.49 107.237V105.225H268.472V107.237H261.49ZM261.49 101.473V99.462L269.342 99.462V101.473L261.49 101.473ZM271.693 113V111.066L273.878 111.066V101.396H271.693V99.462H278.153V101.396H275.967V111.066H278.153V113L271.693 113ZM281.431 113V99.462H283.307L291.585 110.544L291.275 110.718C291.224 110.396 291.179 110.047 291.14 109.674C291.101 109.287 291.063 108.881 291.024 108.455C290.998 108.017 290.973 107.559 290.947 107.082C290.934 106.592 290.921 106.083 290.908 105.554C290.895 105.025 290.889 104.478 290.889 103.91V99.462H292.977V113H291.063L282.921 102.324L283.133 102.054C283.198 102.84 283.249 103.511 283.288 104.065C283.34 104.606 283.378 105.071 283.404 105.457C283.443 105.831 283.469 106.141 283.481 106.386C283.494 106.618 283.501 106.811 283.501 106.966C283.514 107.121 283.52 107.256 283.52 107.372V113H281.431ZM295.356 113L300.597 99.462H302.724L307.927 113H305.703L302.608 104.839C302.569 104.748 302.492 104.529 302.376 104.181C302.273 103.833 302.15 103.446 302.009 103.021C301.867 102.595 301.738 102.208 301.622 101.86C301.506 101.499 301.428 101.267 301.39 101.164L301.835 101.145C301.757 101.364 301.66 101.641 301.544 101.976C301.441 102.311 301.325 102.666 301.196 103.04C301.08 103.414 300.964 103.768 300.848 104.104C300.732 104.426 300.635 104.697 300.558 104.916L297.483 113H295.356ZM297.676 109.635L298.45 107.623H304.6L305.49 109.635H297.676ZM310.309 113V99.462H312.185L320.463 110.544L320.153 110.718C320.102 110.396 320.057 110.047 320.018 109.674C319.979 109.287 319.941 108.881 319.902 108.455C319.876 108.017 319.85 107.559 319.825 107.082C319.812 106.592 319.799 106.083 319.786 105.554C319.773 105.025 319.766 104.478 319.766 103.91V99.462L321.855 99.462V113H319.941L311.798 102.324L312.011 102.054C312.076 102.84 312.127 103.511 312.166 104.065C312.217 104.606 312.256 105.071 312.282 105.457C312.321 105.831 312.346 106.141 312.359 106.386C312.372 106.618 312.379 106.811 312.379 106.966C312.392 107.121 312.398 107.256 312.398 107.372V113H310.309ZM331.138 113.193C330.197 113.193 329.333 113.026 328.546 112.691C327.76 112.355 327.076 111.878 326.496 111.259C325.916 110.628 325.465 109.886 325.142 109.035C324.833 108.184 324.678 107.25 324.678 106.231C324.678 105.264 324.846 104.368 325.181 103.543C325.529 102.705 326.006 101.97 326.612 101.338C327.218 100.706 327.921 100.216 328.72 99.8681C329.52 99.52 330.384 99.346 331.312 99.346C331.969 99.346 332.608 99.4491 333.227 99.6554C333.858 99.8488 334.426 100.126 334.928 100.487C335.444 100.835 335.863 101.235 336.186 101.686L334.793 103.137C334.419 102.763 334.039 102.453 333.652 102.208C333.278 101.95 332.891 101.757 332.492 101.628C332.105 101.499 331.712 101.435 331.312 101.435C330.68 101.435 330.087 101.557 329.533 101.802C328.991 102.034 328.514 102.363 328.101 102.788C327.702 103.214 327.386 103.723 327.154 104.316C326.922 104.897 326.806 105.535 326.806 106.231C326.806 106.966 326.915 107.636 327.134 108.242C327.367 108.835 327.689 109.345 328.101 109.77C328.514 110.196 329.004 110.524 329.571 110.757C330.151 110.976 330.79 111.085 331.486 111.085C331.911 111.085 332.33 111.027 332.743 110.911C333.156 110.795 333.542 110.628 333.903 110.408C334.264 110.189 334.593 109.931 334.89 109.635L335.934 111.337C335.638 111.685 335.231 112.001 334.716 112.284C334.213 112.568 333.646 112.794 333.014 112.961C332.395 113.116 331.77 113.193 331.138 113.193ZM338.269 113V111.066H340.454V101.396H338.269V99.462H344.728V101.396H342.543V111.066H344.728V113H338.269ZM346.595 113L351.836 99.462H353.964L359.166 113H356.942L353.848 104.839C353.809 104.748 353.732 104.529 353.616 104.181C353.513 103.833 353.39 103.446 353.248 103.021C353.106 102.595 352.978 102.208 352.861 101.86C352.745 101.499 352.668 101.267 352.629 101.164L353.074 101.145C352.997 101.364 352.9 101.641 352.784 101.976C352.681 102.311 352.565 102.666 352.436 103.04C352.32 103.414 352.204 103.768 352.088 104.104C351.972 104.426 351.875 104.697 351.798 104.916L348.723 113H346.595ZM348.916 109.635L349.69 107.623H355.84L356.729 109.635H348.916ZM361.549 113V99.462H363.638V110.989H369.981V113H361.549ZM384.6 113.193C383.62 113.193 382.705 113.019 381.854 112.671C381.003 112.31 380.255 111.814 379.611 111.182C378.966 110.55 378.463 109.815 378.102 108.977C377.754 108.126 377.58 107.211 377.58 106.231C377.58 105.264 377.754 104.361 378.102 103.523C378.463 102.685 378.96 101.957 379.591 101.338C380.236 100.706 380.984 100.216 381.835 99.8681C382.686 99.52 383.601 99.346 384.581 99.346C385.264 99.346 385.928 99.4427 386.573 99.6361C387.231 99.8295 387.824 100.1 388.352 100.448C388.881 100.796 389.313 101.196 389.648 101.647L388.294 103.059C387.907 102.685 387.508 102.376 387.095 102.131C386.696 101.886 386.283 101.699 385.857 101.57C385.432 101.441 385.006 101.377 384.581 101.377C383.885 101.377 383.24 101.499 382.647 101.744C382.067 101.989 381.551 102.331 381.1 102.769C380.661 103.208 380.32 103.723 380.075 104.316C379.83 104.897 379.707 105.535 379.707 106.231C379.707 106.901 379.836 107.54 380.094 108.146C380.352 108.739 380.707 109.261 381.158 109.712C381.622 110.163 382.151 110.518 382.744 110.776C383.35 111.034 383.988 111.163 384.658 111.163C385.161 111.163 385.638 111.092 386.09 110.95C386.541 110.795 386.94 110.582 387.289 110.312C387.637 110.041 387.907 109.732 388.101 109.383C388.294 109.022 388.391 108.642 388.391 108.242V107.856L388.681 108.126L384.542 108.126V106.057L390.538 106.057C390.564 106.199 390.583 106.341 390.596 106.482C390.609 106.611 390.615 106.74 390.615 106.869C390.628 106.985 390.634 107.101 390.634 107.217C390.634 108.107 390.48 108.919 390.17 109.654C389.861 110.376 389.429 111.002 388.874 111.53C388.333 112.059 387.695 112.471 386.96 112.768C386.238 113.052 385.451 113.193 384.6 113.193ZM393.354 113V99.462H399.117C399.891 99.462 400.6 99.6554 401.245 100.042C401.902 100.416 402.425 100.932 402.811 101.589C403.198 102.234 403.392 102.963 403.392 103.775C403.392 104.51 403.198 105.193 402.811 105.825C402.425 106.457 401.909 106.966 401.264 107.353C400.62 107.727 399.904 107.914 399.117 107.914H395.443V113H393.354ZM401.4 113L397.957 106.889L400.104 106.405L403.933 113.019L401.4 113ZM395.443 105.902H399.311C399.685 105.902 400.02 105.812 400.317 105.631C400.613 105.438 400.845 105.18 401.013 104.858C401.18 104.523 401.264 104.155 401.264 103.755C401.264 103.304 401.155 102.911 400.935 102.576C400.729 102.228 400.433 101.957 400.046 101.763C399.672 101.57 399.246 101.473 398.769 101.473H395.443V105.902ZM412.279 113.193C411.325 113.193 410.442 113.019 409.63 112.671C408.83 112.323 408.128 111.84 407.522 111.221C406.928 110.589 406.464 109.854 406.129 109.016C405.807 108.165 405.646 107.237 405.646 106.231C405.646 105.225 405.807 104.303 406.129 103.465C406.464 102.614 406.928 101.879 407.522 101.261C408.128 100.629 408.83 100.139 409.63 99.7908C410.442 99.4427 411.325 99.2686 412.279 99.2686C413.233 99.2686 414.11 99.4427 414.909 99.7908C415.722 100.139 416.424 100.629 417.018 101.261C417.624 101.892 418.088 102.634 418.41 103.485C418.745 104.323 418.913 105.238 418.913 106.231C418.913 107.224 418.745 108.146 418.41 108.997C418.088 109.835 417.624 110.57 417.018 111.201C416.424 111.833 415.722 112.323 414.909 112.671C414.11 113.019 413.233 113.193 412.279 113.193ZM412.279 111.163C412.937 111.163 413.536 111.04 414.078 110.795C414.632 110.55 415.109 110.209 415.509 109.77C415.909 109.319 416.218 108.797 416.437 108.204C416.669 107.598 416.785 106.94 416.785 106.231C416.785 105.522 416.669 104.871 416.437 104.278C416.218 103.672 415.909 103.149 415.509 102.711C415.109 102.26 414.632 101.912 414.078 101.667C413.536 101.422 412.937 101.299 412.279 101.299C411.622 101.299 411.016 101.422 410.461 101.667C409.92 101.912 409.443 102.253 409.03 102.692C408.63 103.13 408.321 103.652 408.102 104.258C407.883 104.851 407.773 105.509 407.773 106.231C407.773 106.94 407.883 107.598 408.102 108.204C408.321 108.81 408.63 109.332 409.03 109.77C409.443 110.209 409.92 110.55 410.461 110.795C411.016 111.04 411.622 111.163 412.279 111.163ZM424.528 113L420.215 99.462H422.439L425.05 107.933C425.128 108.139 425.199 108.384 425.263 108.668C425.327 108.939 425.385 109.216 425.437 109.499C425.489 109.783 425.534 110.047 425.572 110.292C425.624 110.537 425.669 110.737 425.708 110.892L425.147 110.873C425.34 110.189 425.489 109.661 425.592 109.287C425.708 108.913 425.798 108.629 425.863 108.436C425.927 108.229 425.985 108.055 426.037 107.914L428.473 101.802H430.349L432.709 107.914C432.838 108.223 432.947 108.532 433.038 108.842C433.141 109.138 433.231 109.441 433.308 109.751C433.386 110.047 433.47 110.363 433.56 110.699L433.057 110.834C433.121 110.486 433.167 110.215 433.192 110.022C433.231 109.815 433.263 109.648 433.289 109.519C433.315 109.39 433.341 109.267 433.366 109.151C433.392 109.022 433.431 108.861 433.482 108.668C433.547 108.474 433.631 108.21 433.734 107.875L436.306 99.462L438.55 99.462L434.237 113H432.786L429.208 104.529L429.382 104.606L425.94 113H424.528ZM443.672 113V101.473H439.881V99.462H449.667V101.473H445.761V113H443.672ZM461.081 113V99.462H463.17V113H461.081ZM452.243 113V99.462H454.332V113H452.243ZM453.152 107.256V105.245H462.01V107.256H453.152Z" fill="#292A2C"/>
<mask id="mask0_214_674" style="mask-type:luminance" maskUnits="userSpaceOnUse" x="38" y="66" width="44" height="44">
<path d="M38 66H81.8594V109.859H38V66Z" fill="white"/>
</mask>
<g mask="url(#mask0_214_674)">
<mask id="mask1_214_674" style="mask-type:luminance" maskUnits="userSpaceOnUse" x="38" y="66" width="44" height="44">
<path d="M59.9271 66C47.8177 66 38 75.8177 38 87.9323C38 100.042 47.8177 109.859 59.9271 109.859C72.0365 109.859 81.8594 100.042 81.8594 87.9323C81.8594 75.8177 72.0365 66 59.9271 66Z" fill="white"/>
</mask>
<g mask="url(#mask1_214_674)">
<path d="M38 66H81.8594V109.859H38V66Z" fill="#00492A"/>
</g>
</g>
<mask id="mask2_214_674" style="mask-type:luminance" maskUnits="userSpaceOnUse" x="53" y="79" width="14" height="18">
<path d="M53.9111 79.5625H66.0101V96.0625H53.9111V79.5625Z" fill="white"/>
</mask>
<g mask="url(#mask2_214_674)">
<path d="M65.9421 79.5884L64.8066 82.104H62.1973C62.3275 82.255 62.4525 82.4478 62.5775 82.6873C62.6973 82.9269 62.7754 83.1665 62.8171 83.4113H65.9421L64.8066 85.9269H62.8171C62.7233 86.4686 62.5358 86.9634 62.2493 87.4113C61.9681 87.854 61.6139 88.2394 61.1868 88.5623C60.765 88.8905 60.2806 89.1561 59.7441 89.354C59.2025 89.5571 58.6348 89.6821 58.0358 89.7342L64.2233 96.2655H60.1973L54.4889 89.9165V87.4009H56.1712C56.3848 87.4009 56.6504 87.3905 56.9785 87.3592C57.3014 87.328 57.6296 87.2603 57.9525 87.1561C58.2754 87.0571 58.5671 86.9061 58.8327 86.7134C59.0983 86.5207 59.2806 86.2603 59.3796 85.9269H53.916L55.0566 83.4113H59.3691C59.2754 83.1092 59.1087 82.8696 58.8639 82.6925C58.6243 82.5207 58.3327 82.3905 57.9941 82.3019C57.6608 82.2134 57.2806 82.1561 56.8639 82.1353C56.4473 82.1144 56.015 82.104 55.5671 82.104H53.916L55.0566 79.5884H65.9421Z" fill="white"/>
</g>
<path d="M60.1286 0C26.9808 0 0 26.9446 0 60.1286C0 93.3125 26.9446 120.221 60.1286 120.221C93.3125 120.221 120.257 93.2764 120.257 60.1286C120.257 26.9687 93.2162 0 60.1286 0ZM114.15 60.1286C114.15 89.952 89.8797 114.223 60.0563 114.223C30.2329 114.223 5.96227 89.952 5.96227 60.1286C5.96227 30.3052 30.2329 6.03454 60.0563 6.03454C89.8797 6.03454 114.15 30.269 114.15 60.1286Z" fill="#00492A"/>
<path d="M58.1012 52.2987C56.1254 50.1417 60.2214 35.9308 36.1725 26.2336C32.2174 26.9513 27.7715 46.9373 51.1395 53.0512C58.125 56.5431 57.0246 62.364 57.0246 65.5994H61.518C61.518 65.5994 59.6796 55.3364 67.8901 51.5754C73.4766 49.0174 88.9051 48.1971 92.9993 25.1441C85.1934 20.6306 57.4713 29.4288 58.1012 52.2987ZM52.434 48.4096C51.9578 48.7392 51.3042 48.6201 50.9746 48.144C48.6876 44.8316 42.3632 37.1888 39.5671 34.4001C39.157 33.9919 39.157 33.3272 39.5671 32.9188C39.9754 32.5086 40.6401 32.5086 41.0485 32.9188C44.0185 35.8943 50.2698 43.4491 52.6995 46.9501C53.0291 47.4262 52.9101 48.0799 52.434 48.4096ZM81.7455 31.4008C74.099 36.2329 67.8496 44.2732 65.0316 48.6402C64.7185 49.1255 64.0685 49.2646 63.5833 48.9514C63.098 48.6364 62.9589 47.9883 63.2738 47.5012C66.22 42.9583 72.5482 34.7552 80.6231 29.6301C81.112 29.3189 81.7584 29.4654 82.0696 29.9543C82.3791 30.4432 82.2344 31.0896 81.7455 31.4008Z" fill="#00492A"/>
</svg>
