<svg width="325" height="98" viewBox="0 0 325 98" fill="none" xmlns="http://www.w3.org/2000/svg">
<path d="M106.647 64.5667C103.889 64.5667 101.358 64.0756 99.0533 63.0933C96.7489 62.1111 94.7467 60.7133 93.0467 58.9C91.3467 57.0489 90.0244 54.8767 89.08 52.3833C88.1733 49.89 87.72 47.1511 87.72 44.1667C87.72 41.3333 88.2111 38.7078 89.1933 36.29C90.2133 33.8344 91.6111 31.6811 93.3867 29.83C95.1622 27.9789 97.2211 26.5433 99.5633 25.5233C101.906 24.5033 104.437 23.9933 107.157 23.9933C109.083 23.9933 110.953 24.2956 112.767 24.9C114.618 25.4667 116.28 26.2789 117.753 27.3367C119.264 28.3567 120.492 29.5278 121.437 30.85L117.357 35.1C116.261 34.0044 115.147 33.0978 114.013 32.38C112.918 31.6244 111.784 31.0578 110.613 30.68C109.48 30.3022 108.328 30.1133 107.157 30.1133C105.306 30.1133 103.568 30.4722 101.943 31.19C100.357 31.87 98.9589 32.8333 97.75 34.08C96.5789 35.3267 95.6533 36.8189 94.9733 38.5567C94.2933 40.2567 93.9533 42.1267 93.9533 44.1667C93.9533 46.32 94.2744 48.2844 94.9167 50.06C95.5967 51.7978 96.5411 53.29 97.75 54.5367C98.9589 55.7833 100.394 56.7467 102.057 57.4267C103.757 58.0689 105.627 58.39 107.667 58.39C108.913 58.39 110.141 58.22 111.35 57.88C112.559 57.54 113.692 57.0489 114.75 56.4067C115.808 55.7644 116.771 55.0089 117.64 54.14L120.7 59.1267C119.831 60.1467 118.641 61.0722 117.13 61.9033C115.657 62.7344 113.994 63.3956 112.143 63.8867C110.33 64.34 108.498 64.5667 106.647 64.5667ZM128.504 64V34.25L134.34 34.25V64H128.504ZM131.337 27.6767C130.09 27.6767 129.127 27.3556 128.447 26.7133C127.767 26.0711 127.427 25.1644 127.427 23.9933C127.427 22.8978 127.767 22.01 128.447 21.33C129.165 20.65 130.128 20.31 131.337 20.31C132.584 20.31 133.547 20.6311 134.227 21.2733C134.907 21.9156 135.247 22.8222 135.247 23.9933C135.247 25.0889 134.888 25.9767 134.17 26.6567C133.49 27.3367 132.546 27.6767 131.337 27.6767ZM143.312 64L143.312 34.25H149.205V43.6L148.638 41.3333C149.054 39.8978 149.753 38.5944 150.735 37.4233C151.755 36.2522 152.907 35.3267 154.192 34.6467C155.514 33.9667 156.874 33.6267 158.272 33.6267C158.914 33.6267 159.518 33.6833 160.085 33.7967C160.69 33.91 161.162 34.0422 161.502 34.1933L159.972 40.54C159.518 40.3511 159.008 40.2 158.442 40.0867C157.913 39.9356 157.384 39.86 156.855 39.86C155.835 39.86 154.853 40.0678 153.908 40.4833C153.002 40.8611 152.19 41.4089 151.472 42.1267C150.792 42.8067 150.244 43.6189 149.828 44.5633C149.413 45.47 149.205 46.4711 149.205 47.5667V64H143.312ZM177.53 64.5667C174.773 64.5667 172.298 63.8867 170.107 62.5267C167.954 61.1667 166.235 59.3156 164.95 56.9733C163.704 54.6311 163.08 52.0056 163.08 49.0967C163.08 46.1878 163.704 43.5622 164.95 41.22C166.235 38.8778 167.954 37.0267 170.107 35.6667C172.298 34.3067 174.773 33.6267 177.53 33.6267C180.175 33.6267 182.574 34.1744 184.727 35.27C186.918 36.3278 188.58 37.7822 189.714 39.6333L186.484 43.6C185.879 42.7311 185.105 41.9378 184.16 41.22C183.216 40.5022 182.215 39.9356 181.157 39.52C180.099 39.1044 179.079 38.8967 178.097 38.8967C176.284 38.8967 174.659 39.35 173.224 40.2567C171.826 41.1256 170.712 42.3344 169.88 43.8833C169.049 45.4322 168.634 47.17 168.634 49.0967C168.634 51.0233 169.068 52.7611 169.937 54.31C170.806 55.8211 171.958 57.03 173.394 57.9367C174.829 58.8433 176.416 59.2967 178.154 59.2967C179.174 59.2967 180.156 59.1267 181.1 58.7867C182.083 58.4467 183.027 57.9367 183.934 57.2567C184.84 56.5767 185.69 55.7456 186.484 54.7633L189.714 58.73C188.505 60.43 186.767 61.8278 184.5 62.9233C182.272 64.0189 179.948 64.5667 177.53 64.5667ZM195.333 64V22.0667H201.169V64H195.333ZM222.771 64.5667C219.711 64.5667 216.991 63.9244 214.611 62.64C212.269 61.3178 210.418 59.5233 209.058 57.2567C207.736 54.99 207.075 52.3833 207.075 49.4367C207.075 47.0944 207.452 44.96 208.208 43.0333C208.964 41.1067 210.002 39.4444 211.325 38.0467C212.685 36.6111 214.29 35.5156 216.141 34.76C218.03 33.9667 220.07 33.57 222.261 33.57C224.188 33.57 225.982 33.9478 227.645 34.7033C229.307 35.4211 230.742 36.4222 231.951 37.7067C233.198 38.9911 234.142 40.5211 234.785 42.2967C235.465 44.0344 235.786 45.9422 235.748 48.02L235.691 50.5133L211.381 50.5133L210.078 45.8667L230.648 45.8667L229.798 46.83V45.47C229.685 44.2233 229.269 43.1089 228.551 42.1267C227.834 41.1444 226.927 40.37 225.831 39.8033C224.736 39.2367 223.546 38.9533 222.261 38.9533C220.221 38.9533 218.502 39.35 217.105 40.1433C215.707 40.8989 214.649 42.0322 213.931 43.5433C213.214 45.0167 212.855 46.8489 212.855 49.04C212.855 51.1178 213.289 52.9311 214.158 54.48C215.027 55.9911 216.255 57.1622 217.841 57.9933C219.428 58.8244 221.26 59.24 223.338 59.24C224.811 59.24 226.171 58.9944 227.418 58.5033C228.702 58.0122 230.081 57.1244 231.555 55.84L234.501 59.9767C233.595 60.8833 232.48 61.6767 231.158 62.3567C229.874 63.0367 228.495 63.5844 227.021 64C225.586 64.3778 224.169 64.5667 222.771 64.5667ZM243.564 64L243.564 24.3333H249.684L249.684 64H243.564ZM246.284 47.1133V41.22H266.741V47.1133H246.284ZM246.284 30.2267V24.3333L269.291 24.3333V30.2267L246.284 30.2267ZM277.143 64L277.143 34.25H282.98V64H277.143ZM279.976 27.6767C278.73 27.6767 277.766 27.3556 277.086 26.7133C276.406 26.0711 276.066 25.1644 276.066 23.9933C276.066 22.8978 276.406 22.01 277.086 21.33C277.804 20.65 278.767 20.31 279.976 20.31C281.223 20.31 282.186 20.6311 282.866 21.2733C283.546 21.9156 283.886 22.8222 283.886 23.9933C283.886 25.0889 283.527 25.9767 282.81 26.6567C282.13 27.3367 281.185 27.6767 279.976 27.6767ZM291.951 64L291.951 34.25H297.788V40.37L296.768 41.05C297.146 39.7278 297.882 38.5189 298.978 37.4233C300.073 36.29 301.377 35.3833 302.888 34.7033C304.399 33.9856 305.948 33.6267 307.534 33.6267C309.801 33.6267 311.69 34.08 313.201 34.9867C314.712 35.8556 315.846 37.1967 316.601 39.01C317.357 40.8233 317.734 43.1089 317.734 45.8667V64H311.898V46.2633C311.898 44.5633 311.671 43.1656 311.218 42.07C310.764 40.9367 310.066 40.1244 309.121 39.6333C308.177 39.1044 307.006 38.8778 305.608 38.9533C304.474 38.9533 303.436 39.1422 302.491 39.52C301.547 39.86 300.716 40.3511 299.998 40.9933C299.318 41.6356 298.77 42.3911 298.354 43.26C297.977 44.0911 297.788 44.9978 297.788 45.98V64H294.898C294.407 64 293.916 64 293.424 64C292.933 64 292.442 64 291.951 64Z" fill="#292A2C"/>
<path d="M90.1285 89.1343C89.4751 89.1343 88.8755 89.0179 88.3295 88.7852C87.7835 88.5525 87.3092 88.2213 86.9064 87.7917C86.5036 87.3532 86.1904 86.8385 85.9666 86.2478C85.7518 85.6571 85.6444 85.0082 85.6444 84.3011C85.6444 83.6299 85.7608 83.0078 85.9935 82.435C86.2351 81.8532 86.5663 81.3431 86.987 80.9045C87.4076 80.466 87.8954 80.1258 88.4503 79.8842C89.0052 79.6425 89.6049 79.5217 90.2493 79.5217C90.7058 79.5217 91.1488 79.5933 91.5784 79.7365C92.017 79.8708 92.4108 80.0632 92.7599 80.3138C93.1179 80.5555 93.4087 80.8329 93.6325 81.1462L92.6659 82.1531C92.4063 81.8935 92.1423 81.6787 91.8738 81.5087C91.6142 81.3296 91.3457 81.1954 91.0683 81.1059C90.7998 81.0164 90.5268 80.9716 90.2493 80.9716C89.8108 80.9716 89.399 81.0567 89.0142 81.2267C88.6383 81.3878 88.3071 81.6161 88.0207 81.9114C87.7432 82.2068 87.524 82.5603 87.3629 82.972C87.2018 83.3748 87.1212 83.8178 87.1212 84.3011C87.1212 84.8113 87.1973 85.2767 87.3494 85.6974C87.5105 86.1091 87.7343 86.4626 88.0207 86.758C88.3071 87.0533 88.6472 87.2816 89.041 87.4427C89.4438 87.5948 89.8868 87.6709 90.3701 87.6709C90.6655 87.6709 90.9564 87.6306 91.2428 87.5501C91.5292 87.4695 91.7977 87.3532 92.0483 87.201C92.2989 87.0488 92.5271 86.8698 92.733 86.664L93.458 87.8454C93.2521 88.0871 92.9702 88.3064 92.6122 88.5033C92.2631 88.7002 91.8693 88.8568 91.4307 88.9731C91.0011 89.0806 90.567 89.1343 90.1285 89.1343ZM99.0793 89.0806C98.3543 89.0806 97.7055 88.9239 97.1326 88.6107C96.5598 88.2885 96.1078 87.8499 95.7767 87.295C95.4545 86.7311 95.2934 86.0956 95.2934 85.3886V79.5888H96.7433V85.2678C96.7433 85.7242 96.8507 86.1359 97.0655 86.5029C97.2803 86.8609 97.5622 87.1473 97.9113 87.3621C98.2693 87.5769 98.6587 87.6843 99.0793 87.6843C99.5268 87.6843 99.9296 87.5769 100.288 87.3621C100.655 87.1473 100.945 86.8609 101.16 86.5029C101.375 86.1359 101.482 85.7242 101.482 85.2678V79.5888H102.865V85.3886C102.865 86.0956 102.7 86.7311 102.369 87.295C102.046 87.8499 101.599 88.2885 101.026 88.6107C100.453 88.9239 99.8043 89.0806 99.0793 89.0806ZM105.366 89V79.6023H106.815V87.6038H111.219V89H105.366ZM114.06 89V80.9985H111.429V79.6023L118.222 79.6023V80.9985L115.51 80.9985V89H114.06ZM119.661 89L119.661 87.6575H121.178V80.9448H119.661V79.6023H124.145V80.9448H122.628V87.6575H124.145V89H119.661ZM129.187 89L125.428 79.6023H127.079L129.321 85.308C129.429 85.5855 129.523 85.8361 129.603 86.0598C129.693 86.2836 129.769 86.4895 129.831 86.6774C129.894 86.8564 129.952 87.0265 130.006 87.1876C130.06 87.3487 130.113 87.5098 130.167 87.6709L129.818 87.6843C129.881 87.4695 129.948 87.2458 130.019 87.013C130.091 86.7803 130.171 86.5253 130.261 86.2478C130.359 85.9703 130.476 85.6571 130.61 85.308L132.691 79.6023H134.383L130.597 89H129.187ZM134.029 89L137.667 79.6023H139.144L142.755 89H141.211L139.063 83.3345C139.036 83.2718 138.983 83.1197 138.902 82.878C138.831 82.6364 138.746 82.3679 138.647 82.0725C138.549 81.7772 138.459 81.5087 138.379 81.267C138.298 81.0164 138.244 80.8553 138.217 80.7837L138.526 80.7703C138.473 80.9224 138.405 81.1148 138.325 81.3475C138.253 81.5803 138.173 81.8264 138.083 82.0859C138.003 82.3455 137.922 82.5916 137.842 82.8243C137.761 83.0481 137.694 83.236 137.64 83.3882L135.506 89H134.029ZM135.64 86.664L136.177 85.2678H140.446L141.064 86.664H135.64ZM145.526 89V80.9985H142.895V79.6023H149.688V80.9985H146.976V89H145.526ZM151.127 89V87.6575H152.644V80.9448H151.127V79.6023H155.611V80.9448H154.094V87.6575H155.611V89H151.127ZM157.887 89V79.6023H159.189L164.935 87.295L164.72 87.4158C164.685 87.1921 164.653 86.9504 164.627 86.6908C164.6 86.4223 164.573 86.1404 164.546 85.845C164.528 85.5407 164.51 85.223 164.492 84.8918C164.483 84.5517 164.474 84.1982 164.465 83.8312C164.456 83.4643 164.452 83.0839 164.452 82.6901V79.6023H165.902V89H164.573L158.921 81.5892L159.068 81.4013C159.113 81.9472 159.149 82.4126 159.176 82.7975C159.212 83.1734 159.238 83.4956 159.256 83.7641C159.283 84.0237 159.301 84.2385 159.31 84.4085C159.319 84.5696 159.323 84.7039 159.323 84.8113C159.332 84.9187 159.337 85.0127 159.337 85.0932V89H157.887ZM172.735 89.1343C172.055 89.1343 171.419 89.0134 170.829 88.7718C170.238 88.5212 169.719 88.1766 169.271 87.738C168.824 87.2995 168.475 86.7893 168.224 86.2075C167.982 85.6168 167.862 84.9813 167.862 84.3011C167.862 83.6299 167.982 83.0033 168.224 82.4216C168.475 81.8398 168.819 81.3341 169.258 80.9045C169.705 80.466 170.224 80.1258 170.815 79.8842C171.406 79.6425 172.041 79.5217 172.722 79.5217C173.196 79.5217 173.657 79.5888 174.104 79.7231C174.561 79.8573 174.973 80.0453 175.34 80.2869C175.706 80.5286 176.006 80.8061 176.239 81.1193L175.299 82.0994C175.031 81.8398 174.753 81.625 174.467 81.455C174.189 81.2849 173.903 81.1551 173.608 81.0656C173.312 80.9761 173.017 80.9314 172.722 80.9314C172.238 80.9314 171.791 81.0164 171.379 81.1864C170.976 81.3565 170.618 81.5937 170.305 81.898C170.001 82.2023 169.764 82.5603 169.593 82.972C169.423 83.3748 169.338 83.8178 169.338 84.3011C169.338 84.7665 169.428 85.2096 169.607 85.6302C169.786 86.0419 170.032 86.4044 170.345 86.7177C170.667 87.0309 171.034 87.2771 171.446 87.4561C171.867 87.6351 172.31 87.7246 172.775 87.7246C173.124 87.7246 173.455 87.6754 173.769 87.5769C174.082 87.4695 174.359 87.3218 174.601 87.1339C174.843 86.9459 175.031 86.7311 175.165 86.4895C175.299 86.2389 175.366 85.9748 175.366 85.6974V85.4289L175.568 85.6168H172.695V84.1803H176.857C176.874 84.2788 176.888 84.3772 176.897 84.4757C176.906 84.5652 176.91 84.6547 176.91 84.7442C176.919 84.8247 176.924 84.9053 176.924 84.9858C176.924 85.6034 176.816 86.1673 176.601 86.6774C176.387 87.1786 176.087 87.6127 175.702 87.9797C175.326 88.3466 174.883 88.633 174.373 88.8389C173.872 89.0358 173.326 89.1343 172.735 89.1343ZM182.574 89V79.6023H184.024V89H182.574ZM183.219 84.9992V83.603H188.065V84.9992H183.219ZM183.219 80.9985V79.6023H188.67V80.9985H183.219ZM190.302 89V87.6575H191.819V80.9448H190.302V79.6023H194.786V80.9448H193.269V87.6575H194.786V89H190.302ZM197.062 89V79.6023H198.364L204.11 87.295L203.895 87.4158C203.859 87.1921 203.828 86.9504 203.801 86.6908C203.774 86.4223 203.748 86.1404 203.721 85.845C203.703 85.5407 203.685 85.223 203.667 84.8918C203.658 84.5517 203.649 84.1982 203.64 83.8312C203.631 83.4643 203.627 83.0839 203.627 82.6901V79.6023H205.077V89H203.748L198.095 81.5892L198.243 81.4013C198.288 81.9472 198.324 82.4126 198.351 82.7975C198.386 83.1734 198.413 83.4956 198.431 83.7641C198.458 84.0237 198.476 84.2385 198.485 84.4085C198.494 84.5696 198.498 84.7039 198.498 84.8113C198.507 84.9187 198.512 85.0127 198.512 85.0932V89H197.062ZM206.728 89L210.366 79.6023H211.843L215.454 89H213.91L211.762 83.3345C211.735 83.2718 211.682 83.1197 211.601 82.878C211.529 82.6364 211.444 82.3679 211.346 82.0725C211.247 81.7772 211.158 81.5087 211.077 81.267C210.997 81.0164 210.943 80.8553 210.916 80.7837L211.225 80.7703C211.171 80.9224 211.104 81.1148 211.024 81.3475C210.952 81.5803 210.872 81.8264 210.782 82.0859C210.701 82.3455 210.621 82.5916 210.54 82.8243C210.46 83.0481 210.393 83.236 210.339 83.3882L208.204 89H206.728ZM208.339 86.664L208.876 85.2678H213.145L213.762 86.664H208.339ZM217.108 89V79.6023H218.41L224.156 87.295L223.941 87.4158C223.906 87.1921 223.874 86.9504 223.848 86.6908C223.821 86.4223 223.794 86.1404 223.767 85.845C223.749 85.5407 223.731 85.223 223.713 84.8918C223.704 84.5517 223.695 84.1982 223.686 83.8312C223.677 83.4643 223.673 83.0839 223.673 82.6901V79.6023H225.123V89H223.794L218.142 81.5892L218.289 81.4013C218.334 81.9472 218.37 82.4126 218.397 82.7975C218.433 83.1734 218.459 83.4956 218.477 83.7641C218.504 84.0237 218.522 84.2385 218.531 84.4085C218.54 84.5696 218.544 84.7039 218.544 84.8113C218.553 84.9187 218.558 85.0127 218.558 85.0932V89H217.108ZM231.567 89.1343C230.913 89.1343 230.314 89.0179 229.768 88.7852C229.222 88.5525 228.747 88.2213 228.345 87.7917C227.942 87.3532 227.629 86.8385 227.405 86.2478C227.19 85.6571 227.083 85.0082 227.083 84.3011C227.083 83.6299 227.199 83.0078 227.432 82.435C227.673 81.8532 228.004 81.3431 228.425 80.9045C228.846 80.466 229.334 80.1258 229.889 79.8842C230.443 79.6425 231.043 79.5217 231.687 79.5217C232.144 79.5217 232.587 79.5933 233.017 79.7365C233.455 79.8708 233.849 80.0632 234.198 80.3138C234.556 80.5555 234.847 80.8329 235.071 81.1462L234.104 82.1531C233.845 81.8935 233.58 81.6787 233.312 81.5087C233.052 81.3296 232.784 81.1954 232.506 81.1059C232.238 81.0164 231.965 80.9716 231.687 80.9716C231.249 80.9716 230.837 81.0567 230.452 81.2267C230.076 81.3878 229.745 81.6161 229.459 81.9114C229.181 82.2068 228.962 82.5603 228.801 82.972C228.64 83.3748 228.559 83.8178 228.559 84.3011C228.559 84.8113 228.635 85.2767 228.788 85.6974C228.949 86.1091 229.172 86.4626 229.459 86.758C229.745 87.0533 230.085 87.2816 230.479 87.4427C230.882 87.5948 231.325 87.6709 231.808 87.6709C232.104 87.6709 232.395 87.6306 232.681 87.5501C232.967 87.4695 233.236 87.3532 233.486 87.201C233.737 87.0488 233.965 86.8698 234.171 86.664L234.896 87.8454C234.69 88.0871 234.408 88.3064 234.05 88.5033C233.701 88.7002 233.307 88.8568 232.869 88.9731C232.439 89.0806 232.005 89.1343 231.567 89.1343ZM236.517 89V87.6575H238.034V80.9448H236.517V79.6023H241.001V80.9448H239.484V87.6575H241.001V89H236.517ZM242.297 89L245.935 79.6023H247.412L251.023 89H249.479L247.331 83.3345C247.305 83.2718 247.251 83.1197 247.17 82.878C247.099 82.6364 247.014 82.3679 246.915 82.0725C246.817 81.7772 246.727 81.5087 246.647 81.267C246.566 81.0164 246.512 80.8553 246.486 80.7837L246.794 80.7703C246.741 80.9224 246.674 81.1148 246.593 81.3475C246.521 81.5803 246.441 81.8264 246.351 82.0859C246.271 82.3455 246.19 82.5916 246.11 82.8243C246.029 83.0481 245.962 83.236 245.908 83.3882L243.774 89H242.297ZM243.908 86.664L244.445 85.2678H248.714L249.332 86.664H243.908ZM252.677 89V79.6023H254.127V87.6038H258.531V89H252.677ZM268.679 89.1343C267.999 89.1343 267.363 89.0134 266.773 88.7718C266.182 88.5212 265.663 88.1766 265.215 87.738C264.768 87.2995 264.419 86.7893 264.168 86.2075C263.926 85.6168 263.806 84.9813 263.806 84.3011C263.806 83.6299 263.926 83.0033 264.168 82.4216C264.419 81.8398 264.763 81.3341 265.202 80.9045C265.649 80.466 266.169 80.1258 266.759 79.8842C267.35 79.6425 267.985 79.5217 268.666 79.5217C269.14 79.5217 269.601 79.5888 270.048 79.7231C270.505 79.8573 270.917 80.0453 271.284 80.2869C271.651 80.5286 271.95 80.8061 272.183 81.1193L271.243 82.0994C270.975 81.8398 270.697 81.625 270.411 81.455C270.133 81.2849 269.847 81.1551 269.552 81.0656C269.256 80.9761 268.961 80.9314 268.666 80.9314C268.182 80.9314 267.735 81.0164 267.323 81.1864C266.92 81.3565 266.562 81.5937 266.249 81.898C265.945 82.2023 265.708 82.5603 265.538 82.972C265.367 83.3748 265.282 83.8178 265.282 84.3011C265.282 84.7665 265.372 85.2096 265.551 85.6302C265.73 86.0419 265.976 86.4044 266.289 86.7177C266.612 87.0309 266.979 87.2771 267.39 87.4561C267.811 87.6351 268.254 87.7246 268.719 87.7246C269.068 87.7246 269.4 87.6754 269.713 87.5769C270.026 87.4695 270.304 87.3218 270.545 87.1339C270.787 86.9459 270.975 86.7311 271.109 86.4895C271.243 86.2389 271.31 85.9748 271.31 85.6974V85.4289L271.512 85.6168H268.639V84.1803H272.801C272.819 84.2788 272.832 84.3772 272.841 84.4757C272.85 84.5652 272.854 84.6547 272.854 84.7442C272.863 84.8247 272.868 84.9053 272.868 84.9858C272.868 85.6034 272.76 86.1673 272.546 86.6774C272.331 87.1786 272.031 87.6127 271.646 87.9797C271.27 88.3466 270.827 88.633 270.317 88.8389C269.816 89.0358 269.27 89.1343 268.679 89.1343ZM274.756 89V79.6023H278.756C279.293 79.6023 279.786 79.7365 280.233 80.005C280.69 80.2646 281.052 80.6226 281.321 81.079C281.589 81.5266 281.723 82.0322 281.723 82.5961C281.723 83.1063 281.589 83.5806 281.321 84.0192C281.052 84.4578 280.694 84.8113 280.247 85.0798C279.799 85.3394 279.302 85.4691 278.756 85.4691H276.206V89H274.756ZM280.341 89L277.951 84.7576L279.441 84.422L282.099 89.0134L280.341 89ZM276.206 84.0729H278.891C279.15 84.0729 279.383 84.0102 279.589 83.8849C279.795 83.7507 279.956 83.5717 280.072 83.3479C280.188 83.1152 280.247 82.8601 280.247 82.5827C280.247 82.2694 280.171 81.9964 280.018 81.7637C279.875 81.5221 279.669 81.3341 279.401 81.1999C279.141 81.0656 278.846 80.9985 278.515 80.9985H276.206V84.0729ZM287.893 89.1343C287.231 89.1343 286.618 89.0134 286.054 88.7718C285.499 88.5301 285.011 88.1945 284.59 87.7649C284.179 87.3263 283.856 86.8161 283.624 86.2344C283.4 85.6437 283.288 84.9992 283.288 84.3011C283.288 83.603 283.4 82.9631 283.624 82.3813C283.856 81.7906 284.179 81.2804 284.59 80.8508C285.011 80.4122 285.499 80.0721 286.054 79.8305C286.618 79.5888 287.231 79.468 287.893 79.468C288.555 79.468 289.164 79.5888 289.719 79.8305C290.283 80.0721 290.771 80.4122 291.182 80.8508C291.603 81.2894 291.925 81.804 292.149 82.3947C292.382 82.9765 292.498 83.612 292.498 84.3011C292.498 84.9903 292.382 85.6302 292.149 86.221C291.925 86.8027 291.603 87.3129 291.182 87.7514C290.771 88.19 290.283 88.5301 289.719 88.7718C289.164 89.0134 288.555 89.1343 287.893 89.1343ZM287.893 87.7246C288.35 87.7246 288.766 87.6396 289.142 87.4695C289.526 87.2995 289.858 87.0623 290.135 86.758C290.413 86.4447 290.627 86.0822 290.78 85.6705C290.941 85.2499 291.021 84.7934 291.021 84.3011C291.021 83.8089 290.941 83.3569 290.78 82.9452C290.627 82.5245 290.413 82.162 290.135 81.8577C289.858 81.5445 289.526 81.3028 289.142 81.1327C288.766 80.9627 288.35 80.8777 287.893 80.8777C287.437 80.8777 287.016 80.9627 286.631 81.1327C286.255 81.3028 285.924 81.54 285.638 81.8443C285.36 82.1486 285.145 82.5111 284.993 82.9317C284.841 83.3435 284.765 83.7999 284.765 84.3011C284.765 84.7934 284.841 85.2499 284.993 85.6705C285.145 86.0912 285.36 86.4537 285.638 86.758C285.924 87.0623 286.255 87.2995 286.631 87.4695C287.016 87.6396 287.437 87.7246 287.893 87.7246ZM296.396 89L293.402 79.6023H294.946L296.758 85.4826C296.812 85.6258 296.861 85.7958 296.906 85.9927C296.951 86.1807 296.991 86.3731 297.027 86.57C297.063 86.7669 297.094 86.9504 297.121 87.1205C297.157 87.2905 297.188 87.4292 297.215 87.5366L296.826 87.5232C296.96 87.0488 297.063 86.6819 297.134 86.4223C297.215 86.1628 297.278 85.9659 297.322 85.8316C297.367 85.6884 297.407 85.5676 297.443 85.4691L299.135 81.2267H300.437L302.075 85.4691C302.164 85.6839 302.24 85.8987 302.303 86.1135C302.375 86.3194 302.437 86.5297 302.491 86.7445C302.545 86.9504 302.603 87.1697 302.666 87.4024L302.316 87.4964C302.361 87.2547 302.393 87.0667 302.41 86.9325C302.437 86.7893 302.46 86.6729 302.478 86.5834C302.495 86.4939 302.513 86.4089 302.531 86.3284C302.549 86.2389 302.576 86.127 302.612 85.9927C302.657 85.8585 302.715 85.675 302.786 85.4423L304.572 79.6023H306.129L303.135 89H302.129L299.645 83.1197L299.766 83.1734L297.376 89H296.396ZM309.685 89V80.9985H307.054V79.6023H313.847V80.9985H311.135V89H309.685ZM321.77 89V79.6023H323.22V89H321.77ZM315.635 89V79.6023H317.085V89H315.635ZM316.266 85.0127V83.6164H322.415V85.0127H316.266Z" fill="#292A2C"/>
<mask id="mask0_208_394" style="mask-type:luminance" maskUnits="userSpaceOnUse" x="14" y="12" width="65" height="65">
<path d="M14.4707 12.3774H78.1707V76.0774H14.4707V12.3774Z" fill="white"/>
</mask>
<g mask="url(#mask0_208_394)">
<path d="M46.3207 12.3901C28.7624 12.3901 14.4707 26.6627 14.4707 44.2401C14.4707 61.8176 28.7432 76.071 46.3207 76.071C63.8982 76.071 78.1707 61.7985 78.1707 44.2401C78.1707 26.6754 63.8471 12.3901 46.3207 12.3901ZM74.9359 44.2401C74.9359 60.0375 62.0798 72.8937 46.2824 72.8937C30.485 72.8937 17.6289 60.0375 17.6289 44.2401C17.6289 28.4427 30.485 15.5866 46.2824 15.5866C62.0798 15.5866 74.9359 28.4236 74.9359 44.2401Z" fill="#00492A"/>
</g>
<path fill-rule="evenodd" clip-rule="evenodd" d="M48.5537 71.2415C48.9173 70.042 49.1151 68.6767 49.0067 67.0433C48.9173 65.3909 48.5154 63.4704 47.5903 61.8179C46.882 60.561 45.8676 59.4573 45.2296 58.5832L44.7255 58.4939L44.6873 58.5449L42.9072 58.1493C40.1318 57.5496 37.4074 56.9307 34.6831 56.0758C31.7035 55.1698 28.271 53.8427 25.9996 51.6479C23.8942 49.6509 22.5352 46.5054 23.5879 43.6024C24.6406 40.7314 27.633 39.1746 30.5615 39.1172C34.1344 39.0661 37.3692 41.0759 39.8 43.545C41.3121 45.0763 42.7285 47.0159 43.9982 48.9746C43.9982 48.9235 43.9982 48.8661 43.9982 48.7768C43.8897 46.5629 44.5022 44.4 45.3061 43.041C46.1037 41.6756 47.0862 41.1142 48.5919 40.7314C50.0977 40.3677 52.1712 40.189 52.5158 41.044C52.8603 41.8926 51.463 43.7301 50.2827 45.2166C49.1024 46.7096 48.0624 47.8325 47.4499 49.0511C46.831 50.2698 46.5949 51.5713 47.0862 53.4982C47.5711 55.4058 48.8089 57.8941 49.7149 59.9422C50.6272 61.9583 51.2397 63.5215 51.8395 65.3015C52.4392 67.0816 52.9879 69.0786 53.2048 70.7311C53.4409 72.3836 53.3452 73.6213 52.6944 74.2721C52.0054 74.9229 50.7357 74.9612 49.734 74.891C48.7195 74.8336 47.9731 74.6549 47.8646 74.0743C47.6987 73.5448 48.2091 72.4729 48.5537 71.2415Z" fill="#00492A"/>
<path fill-rule="evenodd" clip-rule="evenodd" d="M48.4068 46.5052L47.5582 46.9263L46.901 46.837C46.7543 46.7987 46.6458 46.7796 46.5055 46.7413C44.2851 46.0331 44.8849 43.3662 45.1975 41.6563C45.8866 38.1344 46.9776 33.9617 48.6109 30.7653C50.1677 27.6772 52.6943 24.7742 56.1077 23.7917C58.9213 22.975 62.2646 23.5556 64.134 25.9673C66.0034 28.4429 65.6397 31.818 64.2233 34.3956C62.6984 37.1774 59.8337 39.4423 57.2497 41.2033C54.9273 42.8239 52.4773 44.2403 50.0082 45.6375L48.4068 46.5435V46.5052Z" fill="#00492A"/>
<mask id="mask1_208_394" style="mask-type:luminance" maskUnits="userSpaceOnUse" x="45" y="24" width="19" height="22">
<path d="M45.7334 24.5H63.7001V45.7333H45.7334V24.5Z" fill="white"/>
</mask>
<g mask="url(#mask1_208_394)">
<mask id="mask2_208_394" style="mask-type:luminance" maskUnits="userSpaceOnUse" x="46" y="25" width="18" height="20">
<path fill-rule="evenodd" clip-rule="evenodd" d="M47.2837 42.0773C47.7366 39.6592 48.8468 35.0336 50.5184 31.7478C52.1837 28.4556 54.455 26.4969 56.7264 25.8078C59.0296 25.1187 61.3201 25.7504 62.4813 27.2625C63.6425 28.7682 63.6234 31.1799 62.392 33.413C61.1734 35.6333 58.7234 37.6622 56.0564 39.5189C53.3831 41.3691 50.4993 42.9833 48.9553 43.8574L48.7894 43.9467L48.8277 43.8957C49.8804 42.2751 51.3478 40.3674 53.0195 38.6448C54.6911 36.9221 56.5605 35.359 57.5239 34.504C58.4873 33.6363 58.5256 33.4513 57.2878 34.1403C56.0692 34.7975 53.5682 36.3032 51.4754 38.5746C49.6252 40.5525 48.1003 43.1109 47.1369 44.8208C46.9902 44.7124 46.8307 44.489 47.2837 42.0773Z" fill="white"/>
</mask>
<g mask="url(#mask2_208_394)">
<path d="M46.8311 25.1187V44.8207H63.6429V25.1187H46.8311Z" fill="url(#paint0_linear_208_394)"/>
</g>
</g>
<mask id="mask3_208_394" style="mask-type:luminance" maskUnits="userSpaceOnUse" x="47" y="26" width="17" height="19">
<path d="M47.3662 26.1333H63.6995V44.1H47.3662V26.1333Z" fill="white"/>
</mask>
<g mask="url(#mask3_208_394)">
<mask id="mask4_208_394" style="mask-type:luminance" maskUnits="userSpaceOnUse" x="48" y="26" width="15" height="19">
<path fill-rule="evenodd" clip-rule="evenodd" d="M62.0786 27.875C61.1727 26.7138 59.5585 26.0949 57.8294 26.2225C59.2331 26.331 60.4453 26.9116 61.1727 27.875C62.3147 29.3488 62.2828 31.6712 61.1216 33.8341C59.9221 35.997 57.5806 37.9749 54.9839 39.7358C53.057 41.0629 50.9898 42.2943 49.4458 43.2003C49.2417 43.4938 49.0822 43.749 48.8971 44.0042L48.8652 44.0552L49.0247 43.9659C50.4986 43.111 53.3122 41.535 55.8898 39.7741C58.4674 37.994 60.8281 36.0289 62.0276 33.8724C63.1888 31.7095 63.1888 29.368 62.0786 27.875Z" fill="white"/>
</mask>
<g mask="url(#mask4_208_394)">
<path d="M48.8652 26.0947V44.055H63.1888V26.0947H48.8652Z" fill="url(#paint1_linear_208_394)"/>
</g>
</g>
<mask id="mask5_208_394" style="mask-type:luminance" maskUnits="userSpaceOnUse" x="24" y="40" width="22" height="18">
<path d="M24.5 40.8335H45.7333V57.1668H24.5V40.8335Z" fill="white"/>
</mask>
<g mask="url(#mask5_208_394)">
<mask id="mask6_208_394" style="mask-type:luminance" maskUnits="userSpaceOnUse" x="25" y="41" width="21" height="16">
<path fill-rule="evenodd" clip-rule="evenodd" d="M44.4697 53.9705C43.3085 51.7949 40.8904 47.7052 38.3128 45.0574C35.7352 42.4223 32.9726 41.2229 30.5928 41.2611C28.2193 41.2994 26.2032 42.5691 25.546 44.3492C24.8952 46.1292 25.6353 48.4325 27.4537 50.1934C29.2721 51.9544 32.1942 53.173 35.2822 54.1173C38.3639 55.0807 41.6178 55.7697 43.3404 56.1334L43.5063 56.1717L43.4489 56.1143C41.9814 54.8956 40.0163 53.5367 37.8917 52.3755C35.7863 51.227 33.5213 50.3019 32.3537 49.7596C31.1925 49.2109 31.084 49.0514 32.4494 49.3385C33.8084 49.5937 36.6221 50.3019 39.3081 51.8459C41.6369 53.173 43.8891 55.17 45.3055 56.4971C45.3055 56.4971 45.3374 56.4971 45.3374 56.4588C45.5225 56.4014 45.6309 56.1525 44.4697 53.9705Z" fill="white"/>
</mask>
<g mask="url(#mask6_208_394)">
<path d="M24.8955 41.2227V56.4969H45.6312V41.2227H24.8955Z" fill="url(#paint2_linear_208_394)"/>
</g>
</g>
<mask id="mask7_208_394" style="mask-type:luminance" maskUnits="userSpaceOnUse" x="24" y="40" width="22" height="18">
<path d="M24.5 40.8335H45.7333V57.1668H24.5V40.8335Z" fill="white"/>
</mask>
<g mask="url(#mask7_208_394)">
<mask id="mask8_208_394" style="mask-type:luminance" maskUnits="userSpaceOnUse" x="25" y="41" width="20" height="16">
<path fill-rule="evenodd" clip-rule="evenodd" d="M26.0756 45.7271C26.6881 44.0172 28.5958 42.8369 30.8671 42.7667C33.1002 42.7284 35.7161 43.8386 38.1661 46.3651C40.6033 48.8662 42.9066 52.7198 43.9785 54.787C44.1762 55.189 44.3421 55.4952 44.4889 55.7504C44.5973 55.8589 44.7249 55.9482 44.8334 56.0567C44.8334 56.0567 44.8653 56.0567 44.8653 56.0248C45.0121 55.9291 45.1014 55.6803 44.0167 53.645C42.9066 51.5905 40.6352 47.705 38.2044 45.2167C35.697 42.7476 33.1193 41.6247 30.848 41.6438C28.6149 41.6757 26.6753 42.8943 26.0565 44.6042C25.8587 45.1657 25.8012 45.8165 25.8906 46.4736C25.9097 46.2375 25.9671 45.9823 26.0756 45.7271Z" fill="white"/>
</mask>
<g mask="url(#mask8_208_394)">
<path d="M25.8008 41.6245V56.0565H45.1009V41.6245H25.8008Z" fill="url(#paint3_linear_208_394)"/>
</g>
</g>
<defs>
<linearGradient id="paint0_linear_208_394" x1="55.1608" y1="25.1167" x2="55.1608" y2="44.8185" gradientUnits="userSpaceOnUse">
<stop stop-color="#72AD43"/>
<stop offset="0.0625" stop-color="#72AD43"/>
<stop offset="0.0703125" stop-color="#72AD43"/>
<stop offset="0.078125" stop-color="#71AC43"/>
<stop offset="0.0859375" stop-color="#71AC43"/>
<stop offset="0.09375" stop-color="#70AB43"/>
<stop offset="0.101562" stop-color="#6FAB43"/>
<stop offset="0.109375" stop-color="#6FAB43"/>
<stop offset="0.117187" stop-color="#6EAA43"/>
<stop offset="0.125" stop-color="#6EAA43"/>
<stop offset="0.132812" stop-color="#6DA943"/>
<stop offset="0.140625" stop-color="#6DA943"/>
<stop offset="0.148437" stop-color="#6CA843"/>
<stop offset="0.15625" stop-color="#6BA843"/>
<stop offset="0.164062" stop-color="#6BA743"/>
<stop offset="0.171875" stop-color="#6AA743"/>
<stop offset="0.179687" stop-color="#6AA743"/>
<stop offset="0.1875" stop-color="#69A643"/>
<stop offset="0.195312" stop-color="#68A643"/>
<stop offset="0.203125" stop-color="#68A542"/>
<stop offset="0.210937" stop-color="#67A542"/>
<stop offset="0.21875" stop-color="#67A442"/>
<stop offset="0.226562" stop-color="#66A442"/>
<stop offset="0.234375" stop-color="#66A342"/>
<stop offset="0.242187" stop-color="#65A342"/>
<stop offset="0.25" stop-color="#64A342"/>
<stop offset="0.257812" stop-color="#64A242"/>
<stop offset="0.265625" stop-color="#63A242"/>
<stop offset="0.273437" stop-color="#63A142"/>
<stop offset="0.28125" stop-color="#62A142"/>
<stop offset="0.289062" stop-color="#62A042"/>
<stop offset="0.296875" stop-color="#61A042"/>
<stop offset="0.304687" stop-color="#609F42"/>
<stop offset="0.3125" stop-color="#609F42"/>
<stop offset="0.320312" stop-color="#5F9F42"/>
<stop offset="0.328125" stop-color="#5F9E42"/>
<stop offset="0.335937" stop-color="#5E9E42"/>
<stop offset="0.34375" stop-color="#5D9D42"/>
<stop offset="0.351562" stop-color="#5D9D42"/>
<stop offset="0.359375" stop-color="#5C9C42"/>
<stop offset="0.367187" stop-color="#5C9C42"/>
<stop offset="0.375" stop-color="#5B9B42"/>
<stop offset="0.382812" stop-color="#5B9B42"/>
<stop offset="0.390625" stop-color="#5A9B42"/>
<stop offset="0.398437" stop-color="#599A42"/>
<stop offset="0.40625" stop-color="#599A42"/>
<stop offset="0.414062" stop-color="#589942"/>
<stop offset="0.421875" stop-color="#589942"/>
<stop offset="0.429687" stop-color="#579841"/>
<stop offset="0.4375" stop-color="#579841"/>
<stop offset="0.445312" stop-color="#569741"/>
<stop offset="0.453125" stop-color="#559741"/>
<stop offset="0.460938" stop-color="#559741"/>
<stop offset="0.46875" stop-color="#549641"/>
<stop offset="0.476562" stop-color="#549641"/>
<stop offset="0.484375" stop-color="#539541"/>
<stop offset="0.492187" stop-color="#529541"/>
<stop offset="0.5" stop-color="#529441"/>
<stop offset="0.507812" stop-color="#519441"/>
<stop offset="0.515625" stop-color="#519341"/>
<stop offset="0.523438" stop-color="#509341"/>
<stop offset="0.53125" stop-color="#509341"/>
<stop offset="0.539062" stop-color="#4F9241"/>
<stop offset="0.546875" stop-color="#4E9241"/>
<stop offset="0.554687" stop-color="#4E9141"/>
<stop offset="0.5625" stop-color="#4D9141"/>
<stop offset="0.570312" stop-color="#4D9041"/>
<stop offset="0.578125" stop-color="#4C9041"/>
<stop offset="0.585938" stop-color="#4C8F41"/>
<stop offset="0.59375" stop-color="#4B8F41"/>
<stop offset="0.601562" stop-color="#4A8F41"/>
<stop offset="0.609375" stop-color="#4A8E41"/>
<stop offset="0.617187" stop-color="#498E41"/>
<stop offset="0.625" stop-color="#498D41"/>
<stop offset="0.632812" stop-color="#488D41"/>
<stop offset="0.640625" stop-color="#478C41"/>
<stop offset="0.648438" stop-color="#478C41"/>
<stop offset="0.65625" stop-color="#468B40"/>
<stop offset="0.664062" stop-color="#468B40"/>
<stop offset="0.671875" stop-color="#458B40"/>
<stop offset="0.679687" stop-color="#458A40"/>
<stop offset="0.6875" stop-color="#448A40"/>
<stop offset="0.695312" stop-color="#438940"/>
<stop offset="0.703125" stop-color="#438940"/>
<stop offset="0.710938" stop-color="#428840"/>
<stop offset="0.71875" stop-color="#428840"/>
<stop offset="0.726562" stop-color="#418740"/>
<stop offset="0.734375" stop-color="#408740"/>
<stop offset="0.742188" stop-color="#408740"/>
<stop offset="0.75" stop-color="#3F8640"/>
<stop offset="0.757812" stop-color="#3F8640"/>
<stop offset="0.765625" stop-color="#3E8540"/>
<stop offset="0.78125" stop-color="#3E8540"/>
<stop offset="0.8125" stop-color="#3E8540"/>
<stop offset="0.875" stop-color="#3E8540"/>
<stop offset="1" stop-color="#3E8540"/>
</linearGradient>
<linearGradient id="paint1_linear_208_394" x1="61.6596" y1="25.3974" x2="52.3855" y2="45.6679" gradientUnits="userSpaceOnUse">
<stop stop-color="#72AD43"/>
<stop offset="0.015625" stop-color="#72AD43"/>
<stop offset="0.0195312" stop-color="#71AC43"/>
<stop offset="0.0234375" stop-color="#71AC43"/>
<stop offset="0.0273438" stop-color="#70AC43"/>
<stop offset="0.03125" stop-color="#70AB43"/>
<stop offset="0.0351562" stop-color="#6FAB43"/>
<stop offset="0.0390625" stop-color="#6FAA43"/>
<stop offset="0.0429688" stop-color="#6EAA43"/>
<stop offset="0.046875" stop-color="#6EA943"/>
<stop offset="0.0507813" stop-color="#6DA943"/>
<stop offset="0.0546875" stop-color="#6CA943"/>
<stop offset="0.0585938" stop-color="#6CA843"/>
<stop offset="0.0625" stop-color="#6BA843"/>
<stop offset="0.0664063" stop-color="#6BA743"/>
<stop offset="0.0703125" stop-color="#6AA743"/>
<stop offset="0.0742188" stop-color="#6AA643"/>
<stop offset="0.078125" stop-color="#69A643"/>
<stop offset="0.0820312" stop-color="#68A642"/>
<stop offset="0.0859375" stop-color="#68A542"/>
<stop offset="0.0898438" stop-color="#67A542"/>
<stop offset="0.09375" stop-color="#67A442"/>
<stop offset="0.0976562" stop-color="#66A442"/>
<stop offset="0.101562" stop-color="#66A342"/>
<stop offset="0.105469" stop-color="#65A342"/>
<stop offset="0.109375" stop-color="#64A342"/>
<stop offset="0.113281" stop-color="#64A242"/>
<stop offset="0.117188" stop-color="#63A242"/>
<stop offset="0.121094" stop-color="#63A142"/>
<stop offset="0.125" stop-color="#62A142"/>
<stop offset="0.128906" stop-color="#62A042"/>
<stop offset="0.132812" stop-color="#61A042"/>
<stop offset="0.136719" stop-color="#609F42"/>
<stop offset="0.140625" stop-color="#609F42"/>
<stop offset="0.144531" stop-color="#5F9F42"/>
<stop offset="0.148438" stop-color="#5F9E42"/>
<stop offset="0.152344" stop-color="#5E9E42"/>
<stop offset="0.15625" stop-color="#5E9D42"/>
<stop offset="0.160156" stop-color="#5D9D42"/>
<stop offset="0.164062" stop-color="#5C9C42"/>
<stop offset="0.167969" stop-color="#5C9C42"/>
<stop offset="0.171875" stop-color="#5B9C42"/>
<stop offset="0.175781" stop-color="#5B9B42"/>
<stop offset="0.179688" stop-color="#5A9B42"/>
<stop offset="0.183594" stop-color="#5A9A42"/>
<stop offset="0.1875" stop-color="#599A42"/>
<stop offset="0.191406" stop-color="#589942"/>
<stop offset="0.195313" stop-color="#589942"/>
<stop offset="0.199219" stop-color="#579941"/>
<stop offset="0.203125" stop-color="#579841"/>
<stop offset="0.207031" stop-color="#569841"/>
<stop offset="0.210938" stop-color="#569741"/>
<stop offset="0.214844" stop-color="#559741"/>
<stop offset="0.21875" stop-color="#549641"/>
<stop offset="0.222656" stop-color="#549641"/>
<stop offset="0.226563" stop-color="#539541"/>
<stop offset="0.230469" stop-color="#539541"/>
<stop offset="0.234375" stop-color="#529541"/>
<stop offset="0.238281" stop-color="#529441"/>
<stop offset="0.242188" stop-color="#519441"/>
<stop offset="0.246094" stop-color="#519341"/>
<stop offset="0.25" stop-color="#509341"/>
<stop offset="0.253906" stop-color="#4F9241"/>
<stop offset="0.257812" stop-color="#4F9241"/>
<stop offset="0.261719" stop-color="#4E9241"/>
<stop offset="0.265625" stop-color="#4E9141"/>
<stop offset="0.269531" stop-color="#4D9141"/>
<stop offset="0.273438" stop-color="#4D9041"/>
<stop offset="0.277344" stop-color="#4C9041"/>
<stop offset="0.28125" stop-color="#4B8F41"/>
<stop offset="0.285156" stop-color="#4B8F41"/>
<stop offset="0.289063" stop-color="#4A8F41"/>
<stop offset="0.292969" stop-color="#4A8E41"/>
<stop offset="0.296875" stop-color="#498E41"/>
<stop offset="0.300781" stop-color="#498D41"/>
<stop offset="0.304688" stop-color="#488D41"/>
<stop offset="0.308594" stop-color="#478C41"/>
<stop offset="0.3125" stop-color="#478C41"/>
<stop offset="0.316406" stop-color="#468B40"/>
<stop offset="0.320313" stop-color="#468B40"/>
<stop offset="0.324219" stop-color="#458B40"/>
<stop offset="0.328125" stop-color="#458A40"/>
<stop offset="0.332031" stop-color="#448A40"/>
<stop offset="0.335938" stop-color="#438940"/>
<stop offset="0.339844" stop-color="#438940"/>
<stop offset="0.34375" stop-color="#428840"/>
<stop offset="0.347656" stop-color="#428840"/>
<stop offset="0.351562" stop-color="#418840"/>
<stop offset="0.355469" stop-color="#418740"/>
<stop offset="0.359375" stop-color="#408740"/>
<stop offset="0.363281" stop-color="#3F8640"/>
<stop offset="0.367188" stop-color="#3F8640"/>
<stop offset="0.375" stop-color="#3E8540"/>
<stop offset="0.5" stop-color="#3E8540"/>
<stop offset="0.732603" stop-color="#3E8540"/>
<stop offset="1" stop-color="#3E8540"/>
</linearGradient>
<linearGradient id="paint2_linear_208_394" x1="35.3833" y1="41.2235" x2="35.3833" y2="56.4948" gradientUnits="userSpaceOnUse">
<stop stop-color="#72AD43"/>
<stop offset="0.015625" stop-color="#72AD43"/>
<stop offset="0.03125" stop-color="#71AC43"/>
<stop offset="0.046875" stop-color="#70AB43"/>
<stop offset="0.0625" stop-color="#6FAB43"/>
<stop offset="0.078125" stop-color="#6EAA43"/>
<stop offset="0.09375" stop-color="#6DA943"/>
<stop offset="0.109375" stop-color="#6CA943"/>
<stop offset="0.125" stop-color="#6CA843"/>
<stop offset="0.140625" stop-color="#6BA743"/>
<stop offset="0.15625" stop-color="#6AA743"/>
<stop offset="0.171875" stop-color="#69A643"/>
<stop offset="0.1875" stop-color="#68A542"/>
<stop offset="0.203125" stop-color="#67A442"/>
<stop offset="0.21875" stop-color="#66A442"/>
<stop offset="0.234375" stop-color="#65A342"/>
<stop offset="0.25" stop-color="#64A242"/>
<stop offset="0.265625" stop-color="#63A242"/>
<stop offset="0.28125" stop-color="#62A142"/>
<stop offset="0.296875" stop-color="#62A042"/>
<stop offset="0.3125" stop-color="#61A042"/>
<stop offset="0.328125" stop-color="#609F42"/>
<stop offset="0.34375" stop-color="#5F9E42"/>
<stop offset="0.359375" stop-color="#5E9E42"/>
<stop offset="0.375" stop-color="#5D9D42"/>
<stop offset="0.390625" stop-color="#5C9C42"/>
<stop offset="0.40625" stop-color="#5B9B42"/>
<stop offset="0.421875" stop-color="#5A9B42"/>
<stop offset="0.4375" stop-color="#599A42"/>
<stop offset="0.453125" stop-color="#589942"/>
<stop offset="0.46875" stop-color="#589942"/>
<stop offset="0.484375" stop-color="#579841"/>
<stop offset="0.5" stop-color="#569741"/>
<stop offset="0.515625" stop-color="#559741"/>
<stop offset="0.53125" stop-color="#549641"/>
<stop offset="0.546875" stop-color="#539541"/>
<stop offset="0.5625" stop-color="#529441"/>
<stop offset="0.578125" stop-color="#519441"/>
<stop offset="0.59375" stop-color="#509341"/>
<stop offset="0.609375" stop-color="#4F9241"/>
<stop offset="0.625" stop-color="#4E9241"/>
<stop offset="0.640625" stop-color="#4E9141"/>
<stop offset="0.65625" stop-color="#4D9041"/>
<stop offset="0.671875" stop-color="#4C9041"/>
<stop offset="0.6875" stop-color="#4B8F41"/>
<stop offset="0.703125" stop-color="#4A8E41"/>
<stop offset="0.71875" stop-color="#498E41"/>
<stop offset="0.734375" stop-color="#488D41"/>
<stop offset="0.75" stop-color="#478C41"/>
<stop offset="0.765625" stop-color="#468B40"/>
<stop offset="0.78125" stop-color="#458B40"/>
<stop offset="0.796875" stop-color="#448A40"/>
<stop offset="0.8125" stop-color="#448940"/>
<stop offset="0.828125" stop-color="#438940"/>
<stop offset="0.84375" stop-color="#428840"/>
<stop offset="0.859375" stop-color="#418740"/>
<stop offset="0.875" stop-color="#408740"/>
<stop offset="0.890625" stop-color="#3F8640"/>
<stop offset="0.90625" stop-color="#3E8540"/>
<stop offset="0.9375" stop-color="#3E8540"/>
<stop offset="1" stop-color="#3E8540"/>
</linearGradient>
<linearGradient id="paint3_linear_208_394" x1="35.4009" y1="41.6229" x2="35.4009" y2="56.0589" gradientUnits="userSpaceOnUse">
<stop stop-color="#609F42"/>
<stop offset="0.00390625" stop-color="#5F9E42"/>
<stop offset="0.0078125" stop-color="#5F9E42"/>
<stop offset="0.0117187" stop-color="#5E9E42"/>
<stop offset="0.015625" stop-color="#5E9D42"/>
<stop offset="0.0195312" stop-color="#5D9D42"/>
<stop offset="0.0234375" stop-color="#5C9C42"/>
<stop offset="0.0273437" stop-color="#5C9C42"/>
<stop offset="0.03125" stop-color="#5B9C42"/>
<stop offset="0.0351562" stop-color="#5B9B42"/>
<stop offset="0.0390625" stop-color="#5A9B42"/>
<stop offset="0.0429687" stop-color="#5A9A42"/>
<stop offset="0.046875" stop-color="#599A42"/>
<stop offset="0.0507812" stop-color="#599A42"/>
<stop offset="0.0546875" stop-color="#589942"/>
<stop offset="0.0585937" stop-color="#589942"/>
<stop offset="0.0625" stop-color="#579941"/>
<stop offset="0.0664062" stop-color="#579841"/>
<stop offset="0.0703125" stop-color="#569841"/>
<stop offset="0.0742187" stop-color="#569741"/>
<stop offset="0.078125" stop-color="#559741"/>
<stop offset="0.0820312" stop-color="#559741"/>
<stop offset="0.0859375" stop-color="#549641"/>
<stop offset="0.0898437" stop-color="#549641"/>
<stop offset="0.09375" stop-color="#539541"/>
<stop offset="0.0976562" stop-color="#539541"/>
<stop offset="0.101562" stop-color="#529541"/>
<stop offset="0.105469" stop-color="#529441"/>
<stop offset="0.109375" stop-color="#519441"/>
<stop offset="0.113281" stop-color="#519341"/>
<stop offset="0.117187" stop-color="#509341"/>
<stop offset="0.121094" stop-color="#509341"/>
<stop offset="0.125" stop-color="#4F9241"/>
<stop offset="0.128906" stop-color="#4F9241"/>
<stop offset="0.132812" stop-color="#4E9141"/>
<stop offset="0.136719" stop-color="#4E9141"/>
<stop offset="0.140625" stop-color="#4D9141"/>
<stop offset="0.144531" stop-color="#4D9041"/>
<stop offset="0.148438" stop-color="#4C9041"/>
<stop offset="0.152344" stop-color="#4C8F41"/>
<stop offset="0.15625" stop-color="#4B8F41"/>
<stop offset="0.160156" stop-color="#4B8F41"/>
<stop offset="0.164062" stop-color="#4A8E41"/>
<stop offset="0.167969" stop-color="#498E41"/>
<stop offset="0.171875" stop-color="#498E41"/>
<stop offset="0.175781" stop-color="#488D41"/>
<stop offset="0.179687" stop-color="#488D41"/>
<stop offset="0.183594" stop-color="#478C41"/>
<stop offset="0.1875" stop-color="#478C41"/>
<stop offset="0.191406" stop-color="#468C40"/>
<stop offset="0.195312" stop-color="#468B40"/>
<stop offset="0.199219" stop-color="#458B40"/>
<stop offset="0.203125" stop-color="#458A40"/>
<stop offset="0.207031" stop-color="#448A40"/>
<stop offset="0.210937" stop-color="#448A40"/>
<stop offset="0.214844" stop-color="#438940"/>
<stop offset="0.21875" stop-color="#438940"/>
<stop offset="0.222656" stop-color="#428840"/>
<stop offset="0.226562" stop-color="#428840"/>
<stop offset="0.230469" stop-color="#418840"/>
<stop offset="0.234375" stop-color="#418740"/>
<stop offset="0.238281" stop-color="#408740"/>
<stop offset="0.242187" stop-color="#408640"/>
<stop offset="0.246094" stop-color="#3F8640"/>
<stop offset="0.25" stop-color="#3F8640"/>
<stop offset="0.5" stop-color="#3E8540"/>
<stop offset="1" stop-color="#3E8540"/>
</linearGradient>
</defs>
</svg>
