<svg width="348" height="85" viewBox="0 0 348 85" fill="none" xmlns="http://www.w3.org/2000/svg">
<path d="M25.989 81.0451C39.831 81.0451 51.0522 69.8239 51.0522 55.9819C51.0522 42.1399 39.831 30.9187 25.989 30.9187C12.147 30.9187 0.925781 42.1399 0.925781 55.9819C0.925781 69.8239 12.147 81.0451 25.989 81.0451Z" fill="#62CD14"/>
<path d="M17.8727 4.34058L42.9359 4.6003C42.9359 4.6003 41.6617 16.7184 34.7546 23.3003C27.926 29.8077 17.8727 29.0142 17.8727 29.0142V4.34058Z" fill="#F9623E"/>
<path d="M87.9446 81.4128C87.9446 81.4128 64.7566 82.7514 57.4273 72.0628C51.194 62.9726 43.7919 3.6261 43.7919 3.6261L75.2183 3.6261L87.9446 81.4128Z" fill="#FFD317"/>
<path d="M132.258 64.5667C129.5 64.5667 126.969 64.0756 124.664 63.0933C122.36 62.1111 120.358 60.7133 118.658 58.9C116.958 57.0489 115.636 54.8767 114.691 52.3833C113.784 49.89 113.331 47.1511 113.331 44.1667C113.331 41.3333 113.822 38.7078 114.804 36.29C115.824 33.8344 117.222 31.6811 118.998 29.83C120.773 27.9789 122.832 26.5433 125.174 25.5233C127.517 24.5033 130.048 23.9933 132.768 23.9933C134.694 23.9933 136.564 24.2956 138.378 24.9C140.229 25.4667 141.891 26.2789 143.364 27.3367C144.876 28.3567 146.103 29.5278 147.048 30.85L142.968 35.1C141.872 34.0044 140.758 33.0978 139.624 32.38C138.529 31.6244 137.396 31.0578 136.224 30.68C135.091 30.3022 133.939 30.1133 132.768 30.1133C130.917 30.1133 129.179 30.4722 127.554 31.19C125.968 31.87 124.57 32.8333 123.361 34.08C122.19 35.3267 121.264 36.8189 120.584 38.5567C119.904 40.2567 119.564 42.1267 119.564 44.1667C119.564 46.32 119.886 48.2844 120.528 50.06C121.208 51.7978 122.152 53.29 123.361 54.5367C124.57 55.7833 126.006 56.7467 127.668 57.4267C129.368 58.0689 131.238 58.39 133.278 58.39C134.524 58.39 135.752 58.22 136.961 57.88C138.17 57.54 139.303 57.0489 140.361 56.4067C141.419 55.7644 142.382 55.0089 143.251 54.14L146.311 59.1267C145.442 60.1467 144.252 61.0722 142.741 61.9033C141.268 62.7344 139.606 63.3956 137.754 63.8867C135.941 64.34 134.109 64.5667 132.258 64.5667ZM154.115 64V34.25L159.951 34.25V64H154.115ZM156.948 27.6767C155.701 27.6767 154.738 27.3556 154.058 26.7133C153.378 26.0711 153.038 25.1644 153.038 23.9933C153.038 22.8978 153.378 22.01 154.058 21.33C154.776 20.65 155.739 20.31 156.948 20.31C158.195 20.31 159.158 20.6311 159.838 21.2733C160.518 21.9156 160.858 22.8222 160.858 23.9933C160.858 25.0889 160.499 25.9767 159.781 26.6567C159.101 27.3367 158.157 27.6767 156.948 27.6767ZM168.923 64L168.923 34.25H174.816V43.6L174.25 41.3333C174.665 39.8978 175.364 38.5944 176.346 37.4233C177.366 36.2522 178.518 35.3267 179.803 34.6467C181.125 33.9667 182.485 33.6267 183.883 33.6267C184.525 33.6267 185.13 33.6833 185.696 33.7967C186.301 33.91 186.773 34.0422 187.113 34.1933L185.583 40.54C185.13 40.3511 184.62 40.2 184.053 40.0867C183.524 39.9356 182.995 39.86 182.466 39.86C181.446 39.86 180.464 40.0678 179.52 40.4833C178.613 40.8611 177.801 41.4089 177.083 42.1267C176.403 42.8067 175.855 43.6189 175.44 44.5633C175.024 45.47 174.816 46.4711 174.816 47.5667V64H168.923ZM203.142 64.5667C200.384 64.5667 197.909 63.8867 195.718 62.5267C193.565 61.1667 191.846 59.3156 190.562 56.9733C189.315 54.6311 188.692 52.0056 188.692 49.0967C188.692 46.1878 189.315 43.5622 190.562 41.22C191.846 38.8778 193.565 37.0267 195.718 35.6667C197.909 34.3067 200.384 33.6267 203.142 33.6267C205.786 33.6267 208.185 34.1744 210.338 35.27C212.529 36.3278 214.192 37.7822 215.325 39.6333L212.095 43.6C211.49 42.7311 210.716 41.9378 209.772 41.22C208.827 40.5022 207.826 39.9356 206.768 39.52C205.71 39.1044 204.69 38.8967 203.708 38.8967C201.895 38.8967 200.27 39.35 198.835 40.2567C197.437 41.1256 196.323 42.3344 195.492 43.8833C194.66 45.4322 194.245 47.17 194.245 49.0967C194.245 51.0233 194.679 52.7611 195.548 54.31C196.417 55.8211 197.569 57.03 199.005 57.9367C200.44 58.8433 202.027 59.2967 203.765 59.2967C204.785 59.2967 205.767 59.1267 206.712 58.7867C207.694 58.4467 208.638 57.9367 209.545 57.2567C210.452 56.5767 211.302 55.7456 212.095 54.7633L215.325 58.73C214.116 60.43 212.378 61.8278 210.112 62.9233C207.883 64.0189 205.559 64.5667 203.142 64.5667ZM220.944 64V22.0667H226.78V64H220.944ZM248.382 64.5667C245.322 64.5667 242.602 63.9244 240.222 62.64C237.88 61.3178 236.029 59.5233 234.669 57.2567C233.347 54.99 232.686 52.3833 232.686 49.4367C232.686 47.0944 233.063 44.96 233.819 43.0333C234.575 41.1067 235.613 39.4444 236.936 38.0467C238.296 36.6111 239.901 35.5156 241.752 34.76C243.641 33.9667 245.681 33.57 247.872 33.57C249.799 33.57 251.593 33.9478 253.256 34.7033C254.918 35.4211 256.353 36.4222 257.562 37.7067C258.809 38.9911 259.753 40.5211 260.396 42.2967C261.076 44.0344 261.397 45.9422 261.359 48.02L261.302 50.5133L236.992 50.5133L235.689 45.8667L256.259 45.8667L255.409 46.83V45.47C255.296 44.2233 254.88 43.1089 254.162 42.1267C253.445 41.1444 252.538 40.37 251.442 39.8033C250.347 39.2367 249.157 38.9533 247.872 38.9533C245.832 38.9533 244.113 39.35 242.716 40.1433C241.318 40.8989 240.26 42.0322 239.542 43.5433C238.825 45.0167 238.466 46.8489 238.466 49.04C238.466 51.1178 238.9 52.9311 239.769 54.48C240.638 55.9911 241.866 57.1622 243.452 57.9933C245.039 58.8244 246.871 59.24 248.949 59.24C250.422 59.24 251.782 58.9944 253.029 58.5033C254.313 58.0122 255.692 57.1244 257.166 55.84L260.112 59.9767C259.206 60.8833 258.091 61.6767 256.769 62.3567C255.485 63.0367 254.106 63.5844 252.632 64C251.197 64.3778 249.78 64.5667 248.382 64.5667ZM269.175 64L269.175 24.3333H275.295L275.295 64H269.175ZM271.895 47.1133V41.22H292.352V47.1133H271.895ZM271.895 30.2267V24.3333L294.902 24.3333V30.2267L271.895 30.2267ZM302.754 64L302.754 34.25H308.591V64H302.754ZM305.587 27.6767C304.341 27.6767 303.377 27.3556 302.697 26.7133C302.017 26.0711 301.677 25.1644 301.677 23.9933C301.677 22.8978 302.017 22.01 302.697 21.33C303.415 20.65 304.378 20.31 305.587 20.31C306.834 20.31 307.797 20.6311 308.477 21.2733C309.157 21.9156 309.497 22.8222 309.497 23.9933C309.497 25.0889 309.138 25.9767 308.421 26.6567C307.741 27.3367 306.796 27.6767 305.587 27.6767ZM317.562 64L317.562 34.25H323.399V40.37L322.379 41.05C322.757 39.7278 323.493 38.5189 324.589 37.4233C325.684 36.29 326.988 35.3833 328.499 34.7033C330.01 33.9856 331.559 33.6267 333.146 33.6267C335.412 33.6267 337.301 34.08 338.812 34.9867C340.323 35.8556 341.457 37.1967 342.212 39.01C342.968 40.8233 343.346 43.1089 343.346 45.8667V64H337.509V46.2633C337.509 44.5633 337.282 43.1656 336.829 42.07C336.376 40.9367 335.677 40.1244 334.732 39.6333C333.788 39.1044 332.617 38.8778 331.219 38.9533C330.086 38.9533 329.047 39.1422 328.102 39.52C327.158 39.86 326.327 40.3511 325.609 40.9933C324.929 41.6356 324.381 42.3911 323.966 43.26C323.588 44.0911 323.399 44.9978 323.399 45.98V64H320.509C320.018 64 319.527 64 319.036 64C318.544 64 318.053 64 317.562 64Z" fill="#565D6D"/>
</svg>
