<svg width="48" height="48" viewBox="0 0 48 48" fill="none" xmlns="http://www.w3.org/2000/svg">
<path d="M25.6556 41.3306C25.4353 41.6618 25.0925 41.8918 24.7025 41.9702C24.3126 42.0487 23.9075 41.969 23.5762 41.7488C17.9253 37.9895 11.2871 35.989 4.5 36C4.10218 36 3.72064 35.842 3.43934 35.5607C3.15804 35.2794 3 34.8978 3 34.5C3 34.1022 3.15804 33.7206 3.43934 33.4393C3.72064 33.158 4.10218 33 4.5 33C11.8784 32.9886 19.0947 35.1639 25.2375 39.2512C25.5686 39.4716 25.7987 39.8144 25.8771 40.2044C25.9555 40.5943 25.8759 40.9994 25.6556 41.3306ZM4.5 27C4.10218 27 3.72064 27.158 3.43934 27.4393C3.15804 27.7206 3 28.1022 3 28.5C3 28.8978 3.15804 29.2794 3.43934 29.5607C3.72064 29.842 4.10218 30 4.5 30C15.1028 29.9755 25.2876 34.1331 32.8444 41.5706C32.9838 41.714 33.1505 41.828 33.3346 41.906C33.5187 41.984 33.7166 42.0244 33.9166 42.0249C34.1165 42.0253 34.3146 41.9857 34.499 41.9085C34.6835 41.8313 34.8506 41.7179 34.9907 41.5752C35.1307 41.4324 35.2407 41.2631 35.3144 41.0771C35.388 40.8912 35.4237 40.6925 35.4194 40.4925C35.4151 40.2926 35.3708 40.0956 35.2893 39.913C35.2077 39.7304 35.0904 39.566 34.9444 39.4294C26.8282 31.44 15.8887 26.9738 4.5 27ZM43.5 30C40.434 29.998 37.3776 30.3433 34.3894 31.0294C35.4194 31.8106 36.4194 32.6331 37.3894 33.4969C39.4094 33.166 41.453 32.9998 43.5 33C43.8978 33 44.2794 33.158 44.5607 33.4393C44.842 33.7206 45 34.1022 45 34.5C45 34.8978 44.842 35.2794 44.5607 35.5607C44.2794 35.842 43.8978 36 43.5 36C42.375 36 41.2631 36.0544 40.1531 36.1613C41.1931 37.245 42.1894 38.3787 43.1419 39.5625C43.2723 39.7153 43.3708 39.8928 43.4314 40.0843C43.4919 40.2759 43.5134 40.4777 43.4945 40.6777C43.4756 40.8778 43.4167 41.072 43.3213 41.2488C43.2259 41.4256 43.0959 41.5815 42.9391 41.7071C42.7823 41.8328 42.6019 41.9256 42.4085 41.9802C42.2151 42.0347 42.0128 42.0499 41.8134 42.0248C41.6141 41.9996 41.4218 41.9347 41.248 41.8338C41.0743 41.7329 40.9226 41.5981 40.8019 41.4375C36.4541 35.9855 30.9313 31.5856 24.6456 28.5663C18.3598 25.5469 11.4733 23.986 4.5 24C4.10218 24 3.72064 23.842 3.43934 23.5607C3.15804 23.2794 3 22.8978 3 22.5C3 22.1022 3.15804 21.7206 3.43934 21.4393C3.72064 21.158 4.10218 21 4.5 21C7.5187 21.0002 10.5311 21.2751 13.5 21.8212V15C13.5 14.7671 13.5542 14.5375 13.6584 14.3292C13.7625 14.1209 13.9137 13.9397 14.1 13.8L26.1 4.8C26.3596 4.60527 26.6754 4.5 27 4.5C27.3246 4.5 27.6404 4.60527 27.9 4.8L39.9 13.8C40.0863 13.9397 40.2375 14.1209 40.3416 14.3292C40.4458 14.5375 40.5 14.7671 40.5 15V21.0938C41.4956 21.0338 42.495 21 43.5 21C43.8978 21 44.2794 21.158 44.5607 21.4393C44.842 21.7206 45 22.1022 45 22.5C45 22.8978 44.842 23.2794 44.5607 23.5607C44.2794 23.842 43.8978 24 43.5 24C38.1134 23.9897 32.7666 24.9219 27.7013 26.7544C28.8813 27.3794 30.035 28.0531 31.1625 28.7756C35.1685 27.5951 39.3236 26.9971 43.5 27C43.8978 27 44.2794 27.158 44.5607 27.4393C44.842 27.7206 45 28.1022 45 28.5C45 28.8978 44.842 29.2794 44.5607 29.5607C44.2794 29.842 43.8978 30 43.5 30ZM24.0131 24.9881C26.4368 23.9468 28.9405 23.1029 31.5 22.4644V18H22.5V24.375C23.0081 24.5625 23.5125 24.7744 24.0131 24.9881Z" fill="black"/>
</svg>
