<svg width="48" height="48" viewBox="0 0 48 48" fill="none" xmlns="http://www.w3.org/2000/svg">
<path d="M35 13L46 18V44L32 38M32 38L16 44M32 38V24M16 44L2 38V12L12 16M16 44V24M24 32.546C24 32.546 12 23 12 14C12 6.5 18 2 24 2C30 2 36 6.5 36 14C36 23 24 32.546 24 32.546ZM26 14C26 13.4696 25.7893 12.9609 25.4142 12.5858C25.0391 12.2107 24.5304 12 24 12C23.4696 12 22.9609 12.2107 22.5858 12.5858C22.2107 12.9609 22 13.4696 22 14C22 14.5304 22.2107 15.0391 22.5858 15.4142C22.9609 15.7893 23.4696 16 24 16C24.5304 16 25.0391 15.7893 25.4142 15.4142C25.7893 15.0391 26 14.5304 26 14Z" stroke="black" stroke-width="2"/>
</svg>
