<svg width="48" height="48" viewBox="0 0 48 48" fill="none" xmlns="http://www.w3.org/2000/svg">
<path d="M28.8203 27.3258C27.4969 28.8343 25.8854 30.0686 24.0717 30.9635V36.1063C24.0717 36.561 23.8911 36.997 23.5696 37.3185C23.2481 37.64 22.8121 37.8206 22.3574 37.8206H12.0717C11.6171 37.8206 11.181 37.64 10.8595 37.3185C10.538 36.997 10.3574 36.561 10.3574 36.1063V30.9635C6.74491 29.1603 3.98318 26.0128 2.6649 22.1965C1.34662 18.3803 1.57685 14.1993 3.30617 10.5508C5.0355 6.90236 8.12612 4.07717 11.9148 2.68152C15.7035 1.28588 19.8883 1.431 23.5711 3.08575M10.3574 46.2858H24.0717" stroke="black" stroke-linecap="round" stroke-linejoin="round"/>
<path d="M25.3537 13.4884C24.1503 13.2793 24.1503 11.5513 25.3537 11.3421C27.4845 10.9713 29.4566 9.97427 31.0186 8.47825C32.5806 6.98223 33.6617 5.05495 34.124 2.94212L34.196 2.60612C34.4566 1.4164 36.1503 1.40954 36.4212 2.59583L36.5103 2.98326C36.9905 5.08652 38.0813 7.00104 39.646 8.48637C41.2106 9.9717 43.1792 10.9616 45.3046 11.3318C46.5149 11.5444 46.5149 13.2793 45.3046 13.4918C43.1798 13.8626 41.212 14.8529 39.648 16.3381C38.084 17.8234 36.9937 19.7376 36.5137 21.8404L36.4246 22.2278C36.1537 23.4141 34.46 23.4073 34.1995 22.2175L34.1309 21.885C33.6681 19.7712 32.586 17.8433 31.0227 16.3471C29.4594 14.851 27.4858 13.858 25.3537 13.4884Z" stroke="black" stroke-linecap="round" stroke-linejoin="round"/>
</svg>
