<svg width="48" height="48" viewBox="0 0 48 48" fill="none" xmlns="http://www.w3.org/2000/svg">
<path d="M24.2938 36.56L26.6618 24.96C26.7171 24.689 26.8644 24.4453 27.0787 24.2704C27.293 24.0955 27.5611 23.9999 27.8378 24H40.1618C40.4384 23.9999 40.7066 24.0955 40.9209 24.2704C41.1352 24.4453 41.2824 24.689 41.3378 24.96L43.7058 36.56C43.7414 36.7344 43.7377 36.9145 43.6951 37.0873C43.6525 37.2601 43.572 37.4212 43.4595 37.559C43.3469 37.6969 43.2051 37.808 43.0443 37.8842C42.8835 37.9605 42.7077 38 42.5298 38H25.4698C25.2918 38 25.1161 37.9605 24.9553 37.8842C24.7945 37.808 24.6527 37.6969 24.5401 37.559C24.4275 37.4212 24.347 37.2601 24.3044 37.0873C24.2618 36.9145 24.2582 36.7344 24.2938 36.56Z" stroke="black" stroke-width="1.5" stroke-linecap="round"/>
<path d="M14.2938 22.56L16.6618 10.96C16.717 10.6893 16.864 10.4459 17.0779 10.271C17.2918 10.0961 17.5595 10.0004 17.8358 10H30.1638C30.4401 10.0004 30.7078 10.0961 30.9216 10.271C31.1355 10.4459 31.2825 10.6893 31.3378 10.96L33.7058 22.56C33.7414 22.7344 33.7377 22.9145 33.6951 23.0873C33.6525 23.2601 33.572 23.4212 33.4595 23.559C33.3469 23.6969 33.2051 23.808 33.0443 23.8842C32.8835 23.9605 32.7077 24 32.5298 24H15.4698C15.2918 24 15.1161 23.9605 14.9553 23.8842C14.7945 23.808 14.6527 23.6969 14.5401 23.559C14.4275 23.4212 14.347 23.2601 14.3044 23.0873C14.2618 22.9145 14.2582 22.7344 14.2938 22.56Z" stroke="black" stroke-width="1.5" stroke-linecap="round"/>
<path d="M4.29378 36.56L6.66178 24.96C6.71703 24.6893 6.86402 24.4459 7.0779 24.271C7.29179 24.0961 7.55948 24.0004 7.83578 24H20.1618C20.4384 23.9999 20.7066 24.0955 20.9209 24.2704C21.1352 24.4453 21.2824 24.689 21.3378 24.96L23.7058 36.56C23.7414 36.7344 23.7377 36.9145 23.6951 37.0873C23.6525 37.2601 23.572 37.4212 23.4595 37.559C23.3469 37.6969 23.2051 37.808 23.0443 37.8842C22.8835 37.9605 22.7077 38 22.5298 38H5.46978C5.29181 38 5.11607 37.9605 4.95527 37.8842C4.79448 37.808 4.65266 37.6969 4.54009 37.559C4.42752 37.4212 4.34702 37.2601 4.30442 37.0873C4.26182 36.9145 4.25818 36.7344 4.29378 36.56Z" stroke="black" stroke-width="1.5" stroke-linecap="round"/>
</svg>
